<?xml version="1.0" encoding="utf-8" standalone="no"?>
<!DOCTYPE svg PUBLIC "-//W3C//DTD SVG 1.1//EN"
  "http://www.w3.org/Graphics/SVG/1.1/DTD/svg11.dtd">
<svg xmlns:xlink="http://www.w3.org/1999/xlink" width="526.79952pt" height="382.777425pt" viewBox="0 0 526.79952 382.777425" xmlns="http://www.w3.org/2000/svg" version="1.1">
 <metadata>
  <rdf:RDF xmlns:dc="http://purl.org/dc/elements/1.1/" xmlns:cc="http://creativecommons.org/ns#" xmlns:rdf="http://www.w3.org/1999/02/22-rdf-syntax-ns#">
   <cc:Work>
    <dc:type rdf:resource="http://purl.org/dc/dcmitype/StillImage"/>
    <dc:date>2026-05-21T01:42:00.788140</dc:date>
    <dc:format>image/svg+xml</dc:format>
    <dc:creator>
     <cc:Agent>
      <dc:title>Matplotlib v3.10.0, https://matplotlib.org/</dc:title>
     </cc:Agent>
    </dc:creator>
   </cc:Work>
  </rdf:RDF>
 </metadata>
 <defs>
  <style type="text/css">*{stroke-linejoin: round; stroke-linecap: butt}</style>
 </defs>
 <g id="figure_1">
  <g id="patch_1">
   <path d="M 0 382.777425 
L 526.79952 382.777425 
L 526.79952 0 
L 0 0 
z
" style="fill: #ffffff"/>
  </g>
  <g id="axes_1">
   <g id="patch_2">
    <path d="M 46.205469 164.573987 
L 244.846317 164.573987 
L 244.846317 20.276884 
L 46.205469 20.276884 
z
" style="fill: #ffffff"/>
   </g>
   <g id="matplotlib.axis_1">
    <g id="xtick_1">
     <g id="line2d_1">
      <path d="M 52.948743 164.573987 
L 52.948743 20.276884 
" clip-path="url(#p7bdf1ae9e1)" style="fill: none; stroke: #b0b0b0; stroke-opacity: 0.22; stroke-width: 0.5; stroke-linecap: square"/>
     </g>
     <g id="line2d_2">
      <defs>
       <path id="m5a46085429" d="M 0 0 
L 0 3.5 
" style="stroke: #000000; stroke-width: 0.6"/>
      </defs>
      <g>
       <use xlink:href="#m5a46085429" x="52.948743" y="164.573987" style="stroke: #000000; stroke-width: 0.6"/>
      </g>
     </g>
     <g id="text_1">
      <text style="font-size: 7px; font-family: 'Arial', 'DejaVu Sans', 'Liberation Sans', sans-serif; text-anchor: middle" x="52.948743" y="176.584456" transform="rotate(-0 52.948743 176.584456)">0.00</text>
     </g>
    </g>
    <g id="xtick_2">
     <g id="line2d_3">
      <path d="M 75.807298 164.573987 
L 75.807298 20.276884 
" clip-path="url(#p7bdf1ae9e1)" style="fill: none; stroke: #b0b0b0; stroke-opacity: 0.22; stroke-width: 0.5; stroke-linecap: square"/>
     </g>
     <g id="line2d_4">
      <g>
       <use xlink:href="#m5a46085429" x="75.807298" y="164.573987" style="stroke: #000000; stroke-width: 0.6"/>
      </g>
     </g>
     <g id="text_2">
      <text style="font-size: 7px; font-family: 'Arial', 'DejaVu Sans', 'Liberation Sans', sans-serif; text-anchor: middle" x="75.807298" y="176.584456" transform="rotate(-0 75.807298 176.584456)">0.05</text>
     </g>
    </g>
    <g id="xtick_3">
     <g id="line2d_5">
      <path d="M 98.665854 164.573987 
L 98.665854 20.276884 
" clip-path="url(#p7bdf1ae9e1)" style="fill: none; stroke: #b0b0b0; stroke-opacity: 0.22; stroke-width: 0.5; stroke-linecap: square"/>
     </g>
     <g id="line2d_6">
      <g>
       <use xlink:href="#m5a46085429" x="98.665854" y="164.573987" style="stroke: #000000; stroke-width: 0.6"/>
      </g>
     </g>
     <g id="text_3">
      <text style="font-size: 7px; font-family: 'Arial', 'DejaVu Sans', 'Liberation Sans', sans-serif; text-anchor: middle" x="98.665854" y="176.584456" transform="rotate(-0 98.665854 176.584456)">0.10</text>
     </g>
    </g>
    <g id="xtick_4">
     <g id="line2d_7">
      <path d="M 121.524409 164.573987 
L 121.524409 20.276884 
" clip-path="url(#p7bdf1ae9e1)" style="fill: none; stroke: #b0b0b0; stroke-opacity: 0.22; stroke-width: 0.5; stroke-linecap: square"/>
     </g>
     <g id="line2d_8">
      <g>
       <use xlink:href="#m5a46085429" x="121.524409" y="164.573987" style="stroke: #000000; stroke-width: 0.6"/>
      </g>
     </g>
     <g id="text_4">
      <text style="font-size: 7px; font-family: 'Arial', 'DejaVu Sans', 'Liberation Sans', sans-serif; text-anchor: middle" x="121.524409" y="176.584456" transform="rotate(-0 121.524409 176.584456)">0.15</text>
     </g>
    </g>
    <g id="xtick_5">
     <g id="line2d_9">
      <path d="M 144.382965 164.573987 
L 144.382965 20.276884 
" clip-path="url(#p7bdf1ae9e1)" style="fill: none; stroke: #b0b0b0; stroke-opacity: 0.22; stroke-width: 0.5; stroke-linecap: square"/>
     </g>
     <g id="line2d_10">
      <g>
       <use xlink:href="#m5a46085429" x="144.382965" y="164.573987" style="stroke: #000000; stroke-width: 0.6"/>
      </g>
     </g>
     <g id="text_5">
      <text style="font-size: 7px; font-family: 'Arial', 'DejaVu Sans', 'Liberation Sans', sans-serif; text-anchor: middle" x="144.382965" y="176.584456" transform="rotate(-0 144.382965 176.584456)">0.20</text>
     </g>
    </g>
    <g id="xtick_6">
     <g id="line2d_11">
      <path d="M 167.241521 164.573987 
L 167.241521 20.276884 
" clip-path="url(#p7bdf1ae9e1)" style="fill: none; stroke: #b0b0b0; stroke-opacity: 0.22; stroke-width: 0.5; stroke-linecap: square"/>
     </g>
     <g id="line2d_12">
      <g>
       <use xlink:href="#m5a46085429" x="167.241521" y="164.573987" style="stroke: #000000; stroke-width: 0.6"/>
      </g>
     </g>
     <g id="text_6">
      <text style="font-size: 7px; font-family: 'Arial', 'DejaVu Sans', 'Liberation Sans', sans-serif; text-anchor: middle" x="167.241521" y="176.584456" transform="rotate(-0 167.241521 176.584456)">0.25</text>
     </g>
    </g>
    <g id="xtick_7">
     <g id="line2d_13">
      <path d="M 190.100076 164.573987 
L 190.100076 20.276884 
" clip-path="url(#p7bdf1ae9e1)" style="fill: none; stroke: #b0b0b0; stroke-opacity: 0.22; stroke-width: 0.5; stroke-linecap: square"/>
     </g>
     <g id="line2d_14">
      <g>
       <use xlink:href="#m5a46085429" x="190.100076" y="164.573987" style="stroke: #000000; stroke-width: 0.6"/>
      </g>
     </g>
     <g id="text_7">
      <text style="font-size: 7px; font-family: 'Arial', 'DejaVu Sans', 'Liberation Sans', sans-serif; text-anchor: middle" x="190.100076" y="176.584456" transform="rotate(-0 190.100076 176.584456)">0.30</text>
     </g>
    </g>
    <g id="xtick_8">
     <g id="line2d_15">
      <path d="M 212.958632 164.573987 
L 212.958632 20.276884 
" clip-path="url(#p7bdf1ae9e1)" style="fill: none; stroke: #b0b0b0; stroke-opacity: 0.22; stroke-width: 0.5; stroke-linecap: square"/>
     </g>
     <g id="line2d_16">
      <g>
       <use xlink:href="#m5a46085429" x="212.958632" y="164.573987" style="stroke: #000000; stroke-width: 0.6"/>
      </g>
     </g>
     <g id="text_8">
      <text style="font-size: 7px; font-family: 'Arial', 'DejaVu Sans', 'Liberation Sans', sans-serif; text-anchor: middle" x="212.958632" y="176.584456" transform="rotate(-0 212.958632 176.584456)">0.35</text>
     </g>
    </g>
    <g id="xtick_9">
     <g id="line2d_17">
      <path d="M 235.817187 164.573987 
L 235.817187 20.276884 
" clip-path="url(#p7bdf1ae9e1)" style="fill: none; stroke: #b0b0b0; stroke-opacity: 0.22; stroke-width: 0.5; stroke-linecap: square"/>
     </g>
     <g id="line2d_18">
      <g>
       <use xlink:href="#m5a46085429" x="235.817187" y="164.573987" style="stroke: #000000; stroke-width: 0.6"/>
      </g>
     </g>
     <g id="text_9">
      <text style="font-size: 7px; font-family: 'Arial', 'DejaVu Sans', 'Liberation Sans', sans-serif; text-anchor: middle" x="235.817187" y="176.584456" transform="rotate(-0 235.817187 176.584456)">0.40</text>
     </g>
    </g>
    <g id="text_10">
     <text style="font-size: 7px; font-family: 'Arial', 'DejaVu Sans', 'Liberation Sans', sans-serif; text-anchor: middle" x="145.525893" y="186.986175" transform="rotate(-0 145.525893 186.986175)">time</text>
    </g>
   </g>
   <g id="matplotlib.axis_2">
    <g id="ytick_1">
     <g id="line2d_19">
      <path d="M 46.205469 150.571625 
L 244.846317 150.571625 
" clip-path="url(#p7bdf1ae9e1)" style="fill: none; stroke: #b0b0b0; stroke-opacity: 0.22; stroke-width: 0.5; stroke-linecap: square"/>
     </g>
     <g id="line2d_20">
      <defs>
       <path id="mc37e0bc7c7" d="M 0 0 
L -3.5 0 
" style="stroke: #000000; stroke-width: 0.6"/>
      </defs>
      <g>
       <use xlink:href="#mc37e0bc7c7" x="46.205469" y="150.571625" style="stroke: #000000; stroke-width: 0.6"/>
      </g>
     </g>
     <g id="text_11">
      <text style="font-size: 7px; font-family: 'Arial', 'DejaVu Sans', 'Liberation Sans', sans-serif; text-anchor: end" x="39.205469" y="153.076859" transform="rotate(-0 39.205469 153.076859)">−0.006</text>
     </g>
    </g>
    <g id="ytick_2">
     <g id="line2d_21">
      <path d="M 46.205469 129.947923 
L 244.846317 129.947923 
" clip-path="url(#p7bdf1ae9e1)" style="fill: none; stroke: #b0b0b0; stroke-opacity: 0.22; stroke-width: 0.5; stroke-linecap: square"/>
     </g>
     <g id="line2d_22">
      <g>
       <use xlink:href="#mc37e0bc7c7" x="46.205469" y="129.947923" style="stroke: #000000; stroke-width: 0.6"/>
      </g>
     </g>
     <g id="text_12">
      <text style="font-size: 7px; font-family: 'Arial', 'DejaVu Sans', 'Liberation Sans', sans-serif; text-anchor: end" x="39.205469" y="132.453157" transform="rotate(-0 39.205469 132.453157)">−0.005</text>
     </g>
    </g>
    <g id="ytick_3">
     <g id="line2d_23">
      <path d="M 46.205469 109.324221 
L 244.846317 109.324221 
" clip-path="url(#p7bdf1ae9e1)" style="fill: none; stroke: #b0b0b0; stroke-opacity: 0.22; stroke-width: 0.5; stroke-linecap: square"/>
     </g>
     <g id="line2d_24">
      <g>
       <use xlink:href="#mc37e0bc7c7" x="46.205469" y="109.324221" style="stroke: #000000; stroke-width: 0.6"/>
      </g>
     </g>
     <g id="text_13">
      <text style="font-size: 7px; font-family: 'Arial', 'DejaVu Sans', 'Liberation Sans', sans-serif; text-anchor: end" x="39.205469" y="111.829456" transform="rotate(-0 39.205469 111.829456)">−0.004</text>
     </g>
    </g>
    <g id="ytick_4">
     <g id="line2d_25">
      <path d="M 46.205469 88.70052 
L 244.846317 88.70052 
" clip-path="url(#p7bdf1ae9e1)" style="fill: none; stroke: #b0b0b0; stroke-opacity: 0.22; stroke-width: 0.5; stroke-linecap: square"/>
     </g>
     <g id="line2d_26">
      <g>
       <use xlink:href="#mc37e0bc7c7" x="46.205469" y="88.70052" style="stroke: #000000; stroke-width: 0.6"/>
      </g>
     </g>
     <g id="text_14">
      <text style="font-size: 7px; font-family: 'Arial', 'DejaVu Sans', 'Liberation Sans', sans-serif; text-anchor: end" x="39.205469" y="91.205754" transform="rotate(-0 39.205469 91.205754)">−0.003</text>
     </g>
    </g>
    <g id="ytick_5">
     <g id="line2d_27">
      <path d="M 46.205469 68.076818 
L 244.846317 68.076818 
" clip-path="url(#p7bdf1ae9e1)" style="fill: none; stroke: #b0b0b0; stroke-opacity: 0.22; stroke-width: 0.5; stroke-linecap: square"/>
     </g>
     <g id="line2d_28">
      <g>
       <use xlink:href="#mc37e0bc7c7" x="46.205469" y="68.076818" style="stroke: #000000; stroke-width: 0.6"/>
      </g>
     </g>
     <g id="text_15">
      <text style="font-size: 7px; font-family: 'Arial', 'DejaVu Sans', 'Liberation Sans', sans-serif; text-anchor: end" x="39.205469" y="70.582052" transform="rotate(-0 39.205469 70.582052)">−0.002</text>
     </g>
    </g>
    <g id="ytick_6">
     <g id="line2d_29">
      <path d="M 46.205469 47.453116 
L 244.846317 47.453116 
" clip-path="url(#p7bdf1ae9e1)" style="fill: none; stroke: #b0b0b0; stroke-opacity: 0.22; stroke-width: 0.5; stroke-linecap: square"/>
     </g>
     <g id="line2d_30">
      <g>
       <use xlink:href="#mc37e0bc7c7" x="46.205469" y="47.453116" style="stroke: #000000; stroke-width: 0.6"/>
      </g>
     </g>
     <g id="text_16">
      <text style="font-size: 7px; font-family: 'Arial', 'DejaVu Sans', 'Liberation Sans', sans-serif; text-anchor: end" x="39.205469" y="49.958351" transform="rotate(-0 39.205469 49.958351)">−0.001</text>
     </g>
    </g>
    <g id="ytick_7">
     <g id="line2d_31">
      <path d="M 46.205469 26.829414 
L 244.846317 26.829414 
" clip-path="url(#p7bdf1ae9e1)" style="fill: none; stroke: #b0b0b0; stroke-opacity: 0.22; stroke-width: 0.5; stroke-linecap: square"/>
     </g>
     <g id="line2d_32">
      <g>
       <use xlink:href="#mc37e0bc7c7" x="46.205469" y="26.829414" style="stroke: #000000; stroke-width: 0.6"/>
      </g>
     </g>
     <g id="text_17">
      <text style="font-size: 7px; font-family: 'Arial', 'DejaVu Sans', 'Liberation Sans', sans-serif; text-anchor: end" x="39.205469" y="29.334649" transform="rotate(-0 39.205469 29.334649)">0.000</text>
     </g>
    </g>
    <g id="text_18">
     <text style="font-size: 7px; font-family: 'Arial', 'DejaVu Sans', 'Liberation Sans', sans-serif; text-anchor: middle" x="12.210469" y="92.425436" transform="rotate(-90 12.210469 92.425436)">Ux</text>
    </g>
   </g>
   <g id="line2d_33">
    <path d="M 55.234598 26.84892 
L 57.520454 26.968428 
L 59.806309 27.322304 
L 62.092165 28.006894 
L 64.37802 28.976179 
L 66.663876 30.009447 
L 68.949732 30.781922 
L 71.235587 31.011864 
L 73.521443 30.612573 
L 75.807298 29.769414 
L 78.093154 28.895829 
L 80.379009 28.481641 
L 82.664865 28.901486 
L 84.95072 30.272414 
L 87.236576 32.426598 
L 89.522432 35.009039 
L 91.808287 37.649798 
L 94.094143 40.125977 
L 96.379998 42.43718 
L 98.665854 44.764283 
L 100.951709 47.340531 
L 103.237565 50.306261 
L 105.523421 53.622738 
L 107.809276 57.086385 
L 110.095132 60.431261 
L 112.380987 63.462368 
L 114.666843 66.149595 
L 116.952698 68.635535 
L 119.238554 71.156823 
L 121.524409 73.922874 
L 123.810265 77.015605 
L 126.096121 80.357593 
L 128.381976 83.758771 
L 130.667832 87.009355 
L 132.953687 89.966072 
L 135.239543 92.58751 
L 137.525398 94.906913 
L 139.811254 96.967964 
L 142.097109 98.769733 
L 144.382965 100.259444 
L 146.668821 101.381312 
L 148.954676 102.153896 
L 151.240532 102.726947 
L 153.526387 103.37616 
L 155.812243 104.425185 
L 158.098098 106.124454 
L 160.383954 108.542686 
L 162.66981 111.525307 
L 164.955665 114.744625 
L 167.241521 117.823001 
L 169.527376 120.475869 
L 171.813232 122.612134 
L 174.099087 124.350795 
L 176.384943 125.952081 
L 178.670798 127.700847 
L 180.956654 129.79704 
L 183.24251 132.299541 
L 185.528365 135.138166 
L 187.814221 138.173955 
L 190.100076 141.26751 
L 192.385932 144.318188 
L 194.671787 147.260036 
L 196.957643 150.028479 
L 199.243498 152.52966 
L 201.529354 154.640392 
L 203.81521 156.245494 
L 206.101065 157.293364 
L 208.386921 157.834612 
L 210.672776 158.014616 
L 212.958632 158.015028 
L 215.244487 157.968893 
L 217.530343 157.892523 
L 219.816198 157.673087 
L 222.102054 157.124167 
L 224.38791 156.086485 
L 226.673765 154.524797 
L 228.959621 152.570412 
L 231.245476 150.48317 
L 233.531332 148.546295 
L 235.817187 146.94241 
" clip-path="url(#p7bdf1ae9e1)" style="fill: none; stroke: #42949e; stroke-width: 1.5; stroke-linecap: square"/>
   </g>
   <g id="line2d_34">
    <path d="M 55.234598 26.83882 
L 57.520454 26.907131 
L 59.806309 27.142949 
L 62.092165 27.664667 
L 64.37802 28.498981 
L 66.663876 29.509539 
L 68.949732 30.416707 
L 71.235587 30.910513 
L 73.521443 30.805387 
L 75.807298 30.157477 
L 78.093154 29.279097 
L 80.379009 28.634368 
L 82.664865 28.660029 
L 84.95072 29.594388 
L 87.236576 31.394903 
L 89.522432 33.781703 
L 91.808287 36.382569 
L 94.094143 38.906127 
L 96.379998 41.25888 
L 98.665854 43.553191 
L 100.951709 46.010266 
L 103.237565 48.814874 
L 105.523421 51.999977 
L 107.809276 55.419964 
L 110.095132 58.822247 
L 112.380987 61.97526 
L 114.666843 64.783355 
L 116.952698 67.329005 
L 119.238554 69.82336 
L 121.524409 72.49466 
L 123.810265 75.474593 
L 126.096121 78.739907 
L 128.381976 82.133894 
L 130.667832 85.448632 
L 132.953687 88.518407 
L 135.239543 91.273416 
L 137.525398 93.729875 
L 139.811254 95.931621 
L 142.097109 97.886656 
L 144.382965 99.54376 
L 146.668821 100.828653 
L 148.954676 101.721243 
L 151.240532 102.327077 
L 153.526387 102.8942 
L 155.812243 103.753205 
L 158.098098 105.199549 
L 160.383954 107.370956 
L 162.66981 110.180096 
L 164.955665 113.339022 
L 167.241521 116.468505 
L 169.527376 119.244677 
L 171.813232 121.517906 
L 174.099087 123.353258 
L 176.384943 124.980308 
L 178.670798 126.682463 
L 180.956654 128.681077 
L 183.24251 131.065862 
L 185.528365 133.794378 
L 187.814221 136.746346 
L 190.100076 139.793129 
L 192.385932 142.841515 
L 194.671787 145.832573 
L 196.957643 148.706853 
L 199.243498 151.368536 
L 201.529354 153.680847 
L 203.81521 155.503994 
L 206.101065 156.757677 
L 208.386921 157.470743 
L 210.672776 157.783091 
L 212.958632 157.889319 
L 215.244487 157.946889 
L 217.530343 157.9949 
L 219.816198 157.928862 
L 222.102054 157.550645 
L 224.38791 156.67385 
L 226.673765 155.233657 
L 228.959621 153.343967 
L 231.245476 151.268287 
L 233.531332 149.313205 
L 235.817187 147.693329 
" clip-path="url(#p7bdf1ae9e1)" style="fill: none; stroke-dasharray: 5.55,2.4; stroke-dashoffset: 0; stroke: #272727; stroke-width: 1.5"/>
   </g>
   <g id="line2d_35">
    <path d="M 55.234598 26.835843 
L 57.520454 26.893602 
L 59.806309 27.11359 
L 62.092165 27.623966 
L 64.37802 28.463363 
L 66.663876 29.505077 
L 68.949732 30.470837 
L 71.235587 31.038557 
L 73.521443 30.996139 
L 75.807298 30.364776 
L 78.093154 29.426374 
L 80.379009 28.635366 
L 82.664865 28.452059 
L 84.95072 29.173232 
L 87.236576 30.836292 
L 89.522432 33.236089 
L 91.808287 36.03826 
L 94.094143 38.928297 
L 96.379998 41.723782 
L 98.665854 44.402644 
L 100.951709 47.047766 
L 103.237565 49.75146 
L 105.523421 52.539706 
L 107.809276 55.358247 
L 110.095132 58.122494 
L 112.380987 60.794215 
L 114.666843 63.432291 
L 116.952698 66.180903 
L 119.238554 69.196502 
L 121.524409 72.552798 
L 123.810265 76.17866 
L 126.096121 79.867783 
L 128.381976 83.359842 
L 130.667832 86.452357 
L 132.953687 89.083682 
L 135.239543 91.341713 
L 137.525398 93.393115 
L 139.811254 95.372393 
L 142.097109 97.294199 
L 144.382965 99.041778 
L 146.668821 100.443735 
L 148.954676 101.401686 
L 151.240532 101.999482 
L 153.526387 102.528777 
L 155.812243 103.405176 
L 158.098098 105.004838 
L 160.383954 107.494745 
L 162.66981 110.738273 
L 164.955665 114.325852 
L 167.241521 117.723438 
L 169.527376 120.476925 
L 171.813232 122.385096 
L 174.099087 123.568868 
L 176.384943 124.412423 
L 178.670798 125.40831 
L 180.956654 126.976984 
L 183.24251 129.334817 
L 185.528365 132.454643 
L 187.814221 136.116924 
L 190.100076 140.011321 
L 192.385932 143.83538 
L 194.671787 147.35211 
L 196.957643 150.399367 
L 199.243498 152.872092 
L 201.529354 154.708033 
L 203.81521 155.895478 
L 206.101065 156.49732 
L 208.386921 156.666353 
L 210.672776 156.625134 
L 212.958632 156.602401 
L 215.244487 156.746253 
L 217.530343 157.055003 
L 219.816198 157.365837 
L 222.102054 157.416946 
L 224.38791 156.961919 
L 226.673765 155.885417 
L 228.959621 154.263416 
L 231.245476 152.334838 
L 233.531332 150.39383 
L 235.817187 148.652477 
" clip-path="url(#p7bdf1ae9e1)" style="fill: none; stroke-dasharray: 9.6,2.4,1.5,2.4; stroke-dashoffset: 0; stroke: #0f4d92; stroke-width: 1.5"/>
   </g>
   <g id="patch_3">
    <path d="M 46.205469 164.573987 
L 46.205469 20.276884 
" style="fill: none; stroke: #000000; stroke-width: 0.7; stroke-linejoin: miter; stroke-linecap: square"/>
   </g>
   <g id="patch_4">
    <path d="M 46.205469 164.573987 
L 244.846317 164.573987 
" style="fill: none; stroke: #000000; stroke-width: 0.7; stroke-linejoin: miter; stroke-linecap: square"/>
   </g>
   <g id="text_19">
    <text style="font-weight: 700; font-size: 8px; font-family: 'Arial', 'DejaVu Sans', 'Liberation Sans', sans-serif; text-anchor: start" x="20.382158" y="12.92625" transform="rotate(-0 20.382158 12.92625)">a</text>
   </g>
   <g id="legend_1">
    <g id="line2d_36">
     <path d="M 51.425469 27.618415 
L 57.225469 27.618415 
L 63.025469 27.618415 
" style="fill: none; stroke: #42949e; stroke-width: 1.5; stroke-linecap: square"/>
    </g>
    <g id="text_20">
     <text style="font-size: 5.8px; font-family: 'Arial', 'DejaVu Sans', 'Liberation Sans', sans-serif; text-anchor: start" x="67.665469" y="29.648415" transform="rotate(-0 67.665469 29.648415)">CalculiX full FEM</text>
    </g>
    <g id="line2d_37">
     <path d="M 51.425469 35.893384 
L 57.225469 35.893384 
L 63.025469 35.893384 
" style="fill: none; stroke-dasharray: 5.55,2.4; stroke-dashoffset: 0; stroke: #272727; stroke-width: 1.5"/>
    </g>
    <g id="text_21">
     <text style="font-size: 5.8px; font-family: 'Arial', 'DejaVu Sans', 'Liberation Sans', sans-serif; text-anchor: start" x="67.665469" y="37.923384" transform="rotate(-0 67.665469 37.923384)">Python full FEM</text>
    </g>
    <g id="line2d_38">
     <path d="M 51.425469 44.239947 
L 57.225469 44.239947 
L 63.025469 44.239947 
" style="fill: none; stroke-dasharray: 9.6,2.4,1.5,2.4; stroke-dashoffset: 0; stroke: #0f4d92; stroke-width: 1.5"/>
    </g>
    <g id="text_22">
     <text style="font-size: 5.8px; font-family: 'Arial', 'DejaVu Sans', 'Liberation Sans', sans-serif; text-anchor: start" x="67.665469" y="46.269947" transform="rotate(-0 67.665469 46.269947)">adaptive ROM</text>
    </g>
   </g>
  </g>
  <g id="axes_2">
   <g id="patch_5">
    <path d="M 293.826953 164.573987 
L 492.467801 164.573987 
L 492.467801 20.276884 
L 293.826953 20.276884 
z
" style="fill: #ffffff"/>
   </g>
   <g id="matplotlib.axis_3">
    <g id="xtick_10">
     <g id="line2d_39">
      <path d="M 300.570227 164.573987 
L 300.570227 20.276884 
" clip-path="url(#pf7cf86f715)" style="fill: none; stroke: #b0b0b0; stroke-opacity: 0.22; stroke-width: 0.5; stroke-linecap: square"/>
     </g>
     <g id="line2d_40">
      <g>
       <use xlink:href="#m5a46085429" x="300.570227" y="164.573987" style="stroke: #000000; stroke-width: 0.6"/>
      </g>
     </g>
     <g id="text_23">
      <text style="font-size: 7px; font-family: 'Arial', 'DejaVu Sans', 'Liberation Sans', sans-serif; text-anchor: middle" x="300.570227" y="176.584456" transform="rotate(-0 300.570227 176.584456)">0.00</text>
     </g>
    </g>
    <g id="xtick_11">
     <g id="line2d_41">
      <path d="M 323.428783 164.573987 
L 323.428783 20.276884 
" clip-path="url(#pf7cf86f715)" style="fill: none; stroke: #b0b0b0; stroke-opacity: 0.22; stroke-width: 0.5; stroke-linecap: square"/>
     </g>
     <g id="line2d_42">
      <g>
       <use xlink:href="#m5a46085429" x="323.428783" y="164.573987" style="stroke: #000000; stroke-width: 0.6"/>
      </g>
     </g>
     <g id="text_24">
      <text style="font-size: 7px; font-family: 'Arial', 'DejaVu Sans', 'Liberation Sans', sans-serif; text-anchor: middle" x="323.428783" y="176.584456" transform="rotate(-0 323.428783 176.584456)">0.05</text>
     </g>
    </g>
    <g id="xtick_12">
     <g id="line2d_43">
      <path d="M 346.287338 164.573987 
L 346.287338 20.276884 
" clip-path="url(#pf7cf86f715)" style="fill: none; stroke: #b0b0b0; stroke-opacity: 0.22; stroke-width: 0.5; stroke-linecap: square"/>
     </g>
     <g id="line2d_44">
      <g>
       <use xlink:href="#m5a46085429" x="346.287338" y="164.573987" style="stroke: #000000; stroke-width: 0.6"/>
      </g>
     </g>
     <g id="text_25">
      <text style="font-size: 7px; font-family: 'Arial', 'DejaVu Sans', 'Liberation Sans', sans-serif; text-anchor: middle" x="346.287338" y="176.584456" transform="rotate(-0 346.287338 176.584456)">0.10</text>
     </g>
    </g>
    <g id="xtick_13">
     <g id="line2d_45">
      <path d="M 369.145894 164.573987 
L 369.145894 20.276884 
" clip-path="url(#pf7cf86f715)" style="fill: none; stroke: #b0b0b0; stroke-opacity: 0.22; stroke-width: 0.5; stroke-linecap: square"/>
     </g>
     <g id="line2d_46">
      <g>
       <use xlink:href="#m5a46085429" x="369.145894" y="164.573987" style="stroke: #000000; stroke-width: 0.6"/>
      </g>
     </g>
     <g id="text_26">
      <text style="font-size: 7px; font-family: 'Arial', 'DejaVu Sans', 'Liberation Sans', sans-serif; text-anchor: middle" x="369.145894" y="176.584456" transform="rotate(-0 369.145894 176.584456)">0.15</text>
     </g>
    </g>
    <g id="xtick_14">
     <g id="line2d_47">
      <path d="M 392.004449 164.573987 
L 392.004449 20.276884 
" clip-path="url(#pf7cf86f715)" style="fill: none; stroke: #b0b0b0; stroke-opacity: 0.22; stroke-width: 0.5; stroke-linecap: square"/>
     </g>
     <g id="line2d_48">
      <g>
       <use xlink:href="#m5a46085429" x="392.004449" y="164.573987" style="stroke: #000000; stroke-width: 0.6"/>
      </g>
     </g>
     <g id="text_27">
      <text style="font-size: 7px; font-family: 'Arial', 'DejaVu Sans', 'Liberation Sans', sans-serif; text-anchor: middle" x="392.004449" y="176.584456" transform="rotate(-0 392.004449 176.584456)">0.20</text>
     </g>
    </g>
    <g id="xtick_15">
     <g id="line2d_49">
      <path d="M 414.863005 164.573987 
L 414.863005 20.276884 
" clip-path="url(#pf7cf86f715)" style="fill: none; stroke: #b0b0b0; stroke-opacity: 0.22; stroke-width: 0.5; stroke-linecap: square"/>
     </g>
     <g id="line2d_50">
      <g>
       <use xlink:href="#m5a46085429" x="414.863005" y="164.573987" style="stroke: #000000; stroke-width: 0.6"/>
      </g>
     </g>
     <g id="text_28">
      <text style="font-size: 7px; font-family: 'Arial', 'DejaVu Sans', 'Liberation Sans', sans-serif; text-anchor: middle" x="414.863005" y="176.584456" transform="rotate(-0 414.863005 176.584456)">0.25</text>
     </g>
    </g>
    <g id="xtick_16">
     <g id="line2d_51">
      <path d="M 437.721561 164.573987 
L 437.721561 20.276884 
" clip-path="url(#pf7cf86f715)" style="fill: none; stroke: #b0b0b0; stroke-opacity: 0.22; stroke-width: 0.5; stroke-linecap: square"/>
     </g>
     <g id="line2d_52">
      <g>
       <use xlink:href="#m5a46085429" x="437.721561" y="164.573987" style="stroke: #000000; stroke-width: 0.6"/>
      </g>
     </g>
     <g id="text_29">
      <text style="font-size: 7px; font-family: 'Arial', 'DejaVu Sans', 'Liberation Sans', sans-serif; text-anchor: middle" x="437.721561" y="176.584456" transform="rotate(-0 437.721561 176.584456)">0.30</text>
     </g>
    </g>
    <g id="xtick_17">
     <g id="line2d_53">
      <path d="M 460.580116 164.573987 
L 460.580116 20.276884 
" clip-path="url(#pf7cf86f715)" style="fill: none; stroke: #b0b0b0; stroke-opacity: 0.22; stroke-width: 0.5; stroke-linecap: square"/>
     </g>
     <g id="line2d_54">
      <g>
       <use xlink:href="#m5a46085429" x="460.580116" y="164.573987" style="stroke: #000000; stroke-width: 0.6"/>
      </g>
     </g>
     <g id="text_30">
      <text style="font-size: 7px; font-family: 'Arial', 'DejaVu Sans', 'Liberation Sans', sans-serif; text-anchor: middle" x="460.580116" y="176.584456" transform="rotate(-0 460.580116 176.584456)">0.35</text>
     </g>
    </g>
    <g id="xtick_18">
     <g id="line2d_55">
      <path d="M 483.438672 164.573987 
L 483.438672 20.276884 
" clip-path="url(#pf7cf86f715)" style="fill: none; stroke: #b0b0b0; stroke-opacity: 0.22; stroke-width: 0.5; stroke-linecap: square"/>
     </g>
     <g id="line2d_56">
      <g>
       <use xlink:href="#m5a46085429" x="483.438672" y="164.573987" style="stroke: #000000; stroke-width: 0.6"/>
      </g>
     </g>
     <g id="text_31">
      <text style="font-size: 7px; font-family: 'Arial', 'DejaVu Sans', 'Liberation Sans', sans-serif; text-anchor: middle" x="483.438672" y="176.584456" transform="rotate(-0 483.438672 176.584456)">0.40</text>
     </g>
    </g>
    <g id="text_32">
     <text style="font-size: 7px; font-family: 'Arial', 'DejaVu Sans', 'Liberation Sans', sans-serif; text-anchor: middle" x="393.147377" y="186.986175" transform="rotate(-0 393.147377 186.986175)">time</text>
    </g>
   </g>
   <g id="matplotlib.axis_4">
    <g id="ytick_8">
     <g id="line2d_57">
      <path d="M 293.826953 164.275955 
L 492.467801 164.275955 
" clip-path="url(#pf7cf86f715)" style="fill: none; stroke: #b0b0b0; stroke-opacity: 0.22; stroke-width: 0.5; stroke-linecap: square"/>
     </g>
     <g id="line2d_58">
      <g>
       <use xlink:href="#mc37e0bc7c7" x="293.826953" y="164.275955" style="stroke: #000000; stroke-width: 0.6"/>
      </g>
     </g>
     <g id="text_33">
      <text style="font-size: 7px; font-family: 'Arial', 'DejaVu Sans', 'Liberation Sans', sans-serif; text-anchor: end" x="286.826953" y="166.781189" transform="rotate(-0 286.826953 166.781189)">−0.0014</text>
     </g>
    </g>
    <g id="ytick_9">
     <g id="line2d_59">
      <path d="M 293.826953 144.63568 
L 492.467801 144.63568 
" clip-path="url(#pf7cf86f715)" style="fill: none; stroke: #b0b0b0; stroke-opacity: 0.22; stroke-width: 0.5; stroke-linecap: square"/>
     </g>
     <g id="line2d_60">
      <g>
       <use xlink:href="#mc37e0bc7c7" x="293.826953" y="144.63568" style="stroke: #000000; stroke-width: 0.6"/>
      </g>
     </g>
     <g id="text_34">
      <text style="font-size: 7px; font-family: 'Arial', 'DejaVu Sans', 'Liberation Sans', sans-serif; text-anchor: end" x="286.826953" y="147.140914" transform="rotate(-0 286.826953 147.140914)">−0.0012</text>
     </g>
    </g>
    <g id="ytick_10">
     <g id="line2d_61">
      <path d="M 293.826953 124.995405 
L 492.467801 124.995405 
" clip-path="url(#pf7cf86f715)" style="fill: none; stroke: #b0b0b0; stroke-opacity: 0.22; stroke-width: 0.5; stroke-linecap: square"/>
     </g>
     <g id="line2d_62">
      <g>
       <use xlink:href="#mc37e0bc7c7" x="293.826953" y="124.995405" style="stroke: #000000; stroke-width: 0.6"/>
      </g>
     </g>
     <g id="text_35">
      <text style="font-size: 7px; font-family: 'Arial', 'DejaVu Sans', 'Liberation Sans', sans-serif; text-anchor: end" x="286.826953" y="127.500639" transform="rotate(-0 286.826953 127.500639)">−0.0010</text>
     </g>
    </g>
    <g id="ytick_11">
     <g id="line2d_63">
      <path d="M 293.826953 105.355129 
L 492.467801 105.355129 
" clip-path="url(#pf7cf86f715)" style="fill: none; stroke: #b0b0b0; stroke-opacity: 0.22; stroke-width: 0.5; stroke-linecap: square"/>
     </g>
     <g id="line2d_64">
      <g>
       <use xlink:href="#mc37e0bc7c7" x="293.826953" y="105.355129" style="stroke: #000000; stroke-width: 0.6"/>
      </g>
     </g>
     <g id="text_36">
      <text style="font-size: 7px; font-family: 'Arial', 'DejaVu Sans', 'Liberation Sans', sans-serif; text-anchor: end" x="286.826953" y="107.860364" transform="rotate(-0 286.826953 107.860364)">−0.0008</text>
     </g>
    </g>
    <g id="ytick_12">
     <g id="line2d_65">
      <path d="M 293.826953 85.714854 
L 492.467801 85.714854 
" clip-path="url(#pf7cf86f715)" style="fill: none; stroke: #b0b0b0; stroke-opacity: 0.22; stroke-width: 0.5; stroke-linecap: square"/>
     </g>
     <g id="line2d_66">
      <g>
       <use xlink:href="#mc37e0bc7c7" x="293.826953" y="85.714854" style="stroke: #000000; stroke-width: 0.6"/>
      </g>
     </g>
     <g id="text_37">
      <text style="font-size: 7px; font-family: 'Arial', 'DejaVu Sans', 'Liberation Sans', sans-serif; text-anchor: end" x="286.826953" y="88.220089" transform="rotate(-0 286.826953 88.220089)">−0.0006</text>
     </g>
    </g>
    <g id="ytick_13">
     <g id="line2d_67">
      <path d="M 293.826953 66.074579 
L 492.467801 66.074579 
" clip-path="url(#pf7cf86f715)" style="fill: none; stroke: #b0b0b0; stroke-opacity: 0.22; stroke-width: 0.5; stroke-linecap: square"/>
     </g>
     <g id="line2d_68">
      <g>
       <use xlink:href="#mc37e0bc7c7" x="293.826953" y="66.074579" style="stroke: #000000; stroke-width: 0.6"/>
      </g>
     </g>
     <g id="text_38">
      <text style="font-size: 7px; font-family: 'Arial', 'DejaVu Sans', 'Liberation Sans', sans-serif; text-anchor: end" x="286.826953" y="68.579813" transform="rotate(-0 286.826953 68.579813)">−0.0004</text>
     </g>
    </g>
    <g id="ytick_14">
     <g id="line2d_69">
      <path d="M 293.826953 46.434304 
L 492.467801 46.434304 
" clip-path="url(#pf7cf86f715)" style="fill: none; stroke: #b0b0b0; stroke-opacity: 0.22; stroke-width: 0.5; stroke-linecap: square"/>
     </g>
     <g id="line2d_70">
      <g>
       <use xlink:href="#mc37e0bc7c7" x="293.826953" y="46.434304" style="stroke: #000000; stroke-width: 0.6"/>
      </g>
     </g>
     <g id="text_39">
      <text style="font-size: 7px; font-family: 'Arial', 'DejaVu Sans', 'Liberation Sans', sans-serif; text-anchor: end" x="286.826953" y="48.939538" transform="rotate(-0 286.826953 48.939538)">−0.0002</text>
     </g>
    </g>
    <g id="ytick_15">
     <g id="line2d_71">
      <path d="M 293.826953 26.794028 
L 492.467801 26.794028 
" clip-path="url(#pf7cf86f715)" style="fill: none; stroke: #b0b0b0; stroke-opacity: 0.22; stroke-width: 0.5; stroke-linecap: square"/>
     </g>
     <g id="line2d_72">
      <g>
       <use xlink:href="#mc37e0bc7c7" x="293.826953" y="26.794028" style="stroke: #000000; stroke-width: 0.6"/>
      </g>
     </g>
     <g id="text_40">
      <text style="font-size: 7px; font-family: 'Arial', 'DejaVu Sans', 'Liberation Sans', sans-serif; text-anchor: end" x="286.826953" y="29.299263" transform="rotate(-0 286.826953 29.299263)">0.0000</text>
     </g>
    </g>
    <g id="text_41">
     <text style="font-size: 7px; font-family: 'Arial', 'DejaVu Sans', 'Liberation Sans', sans-serif; text-anchor: middle" x="255.857266" y="92.425436" transform="rotate(-90 255.857266 92.425436)">Uy</text>
    </g>
   </g>
   <g id="line2d_73">
    <path d="M 302.856083 26.880913 
L 305.141938 27.42352 
L 307.427794 29.083173 
L 309.713649 32.471456 
L 311.999505 37.722182 
L 314.28536 44.292826 
L 316.571216 51.115622 
L 318.857072 57.027787 
L 321.142927 61.262662 
L 323.428783 63.754679 
L 325.714638 65.113354 
L 328.000494 66.295758 
L 330.286349 68.157106 
L 332.572205 71.106015 
L 334.85806 75.0155 
L 337.143916 79.392424 
L 339.429772 83.673159 
L 341.715627 87.466384 
L 344.001483 90.624756 
L 346.287338 93.151635 
L 348.573194 95.05736 
L 350.859049 96.305097 
L 353.144905 96.913523 
L 355.43076 97.15992 
L 357.716616 97.730883 
L 360.002472 99.665135 
L 362.288327 104.034606 
L 364.574183 111.463176 
L 366.860038 121.701544 
L 369.145894 133.488056 
L 371.431749 144.813228 
L 373.717605 153.520646 
L 376.00346 158.015028 
L 378.289316 157.789165 
L 380.575172 153.558453 
L 382.861027 146.967471 
L 385.146883 140.013145 
L 387.432738 134.433048 
L 389.718594 131.285203 
L 392.004449 130.827584 
L 394.290305 132.655505 
L 396.576161 135.958508 
L 398.862016 139.755071 
L 401.147872 143.037845 
L 403.433727 144.856633 
L 405.719583 144.419637 
L 408.005438 141.263346 
L 410.291294 135.462689 
L 412.577149 127.772048 
L 414.863005 119.569042 
L 417.148861 112.541457 
L 419.434716 108.181218 
L 421.720572 107.263997 
L 424.006427 109.529798 
L 426.292283 113.712283 
L 428.578138 117.919878 
L 430.863994 120.221099 
L 433.149849 119.205088 
L 435.435705 114.314571 
L 437.721561 105.864932 
L 440.007416 94.805994 
L 442.293272 82.379199 
L 444.579127 69.82867 
L 446.864983 58.249324 
L 449.150838 48.550789 
L 451.436694 41.447932 
L 453.72255 37.394199 
L 456.008405 36.444853 
L 458.294261 38.123178 
L 460.580116 41.405038 
L 462.865972 44.903079 
L 465.151827 47.235008 
L 467.437683 47.453889 
L 469.723538 45.364125 
L 472.009394 41.580131 
L 474.29525 37.292443 
L 476.581105 33.835195 
L 478.866961 32.232695 
L 481.152816 32.901576 
L 483.438672 35.601613 
" clip-path="url(#pf7cf86f715)" style="fill: none; stroke: #42949e; stroke-width: 1.5; stroke-linecap: square"/>
   </g>
   <g id="line2d_74">
    <path d="M 302.856083 26.835843 
L 305.141938 27.144543 
L 307.427794 28.238896 
L 309.713649 30.767404 
L 311.999505 35.110987 
L 314.28536 41.058316 
L 316.571216 47.783136 
L 318.857072 54.147355 
L 321.142927 59.17789 
L 323.428783 62.47351 
L 325.714638 64.338688 
L 328.000494 65.588978 
L 330.286349 67.143069 
L 332.572205 69.617148 
L 334.85806 73.116617 
L 337.143916 77.297329 
L 339.429772 81.618435 
L 341.715627 85.617882 
L 344.001483 89.057223 
L 346.287338 91.88741 
L 348.573194 94.111775 
L 350.859049 95.687344 
L 353.144905 96.570438 
L 355.43076 96.899785 
L 357.716616 97.192282 
L 360.002472 98.381634 
L 362.288327 101.594757 
L 364.574183 107.706124 
L 366.860038 116.855517 
L 369.145894 128.17373 
L 371.431749 139.891149 
L 373.717605 149.834026 
L 376.00346 156.127517 
L 378.289316 157.819612 
L 380.575172 155.171014 
L 382.861027 149.507013 
L 385.146883 142.720454 
L 387.432738 136.653323 
L 389.718594 132.604575 
L 392.004449 131.115353 
L 394.290305 132.032089 
L 396.576161 134.727999 
L 398.862016 138.332977 
L 401.147872 141.882661 
L 403.433727 144.397483 
L 405.719583 144.970884 
L 408.005438 142.936822 
L 410.291294 138.10761 
L 412.577149 130.9789 
L 414.863005 122.757522 
L 417.148861 115.117953 
L 419.434716 109.717372 
L 421.720572 107.632419 
L 424.006427 108.946559 
L 426.292283 112.672112 
L 428.578138 117.051765 
L 430.863994 120.11921 
L 433.149849 120.291081 
L 435.435705 116.76542 
L 437.721561 109.609112 
L 440.007416 99.567158 
L 442.293272 87.740109 
L 444.579127 75.29754 
L 446.864983 63.325049 
L 449.150838 52.791428 
L 451.436694 44.542215 
L 453.72255 39.223668 
L 456.008405 37.114323 
L 458.294261 37.939363 
L 460.580116 40.799327 
L 462.865972 44.317292 
L 465.151827 47.006356 
L 467.437683 47.737343 
L 469.723538 46.1155 
L 472.009394 42.598728 
L 474.29525 38.300726 
L 476.581105 34.564008 
L 478.866961 32.486769 
L 481.152816 32.594588 
L 483.438672 34.763971 
" clip-path="url(#pf7cf86f715)" style="fill: none; stroke-dasharray: 5.55,2.4; stroke-dashoffset: 0; stroke: #272727; stroke-width: 1.5"/>
   </g>
   <g id="line2d_75">
    <path d="M 302.856083 26.844521 
L 305.141938 27.181968 
L 307.427794 28.312824 
L 309.713649 30.853865 
L 311.999505 35.159675 
L 314.28536 41.013026 
L 316.571216 47.609429 
L 318.857072 53.856032 
L 321.142927 58.833645 
L 323.428783 62.183293 
L 325.714638 64.221705 
L 328.000494 65.737184 
L 330.286349 67.584929 
L 332.572205 70.297007 
L 334.85806 73.89752 
L 337.143916 77.988236 
L 339.429772 82.019701 
L 341.715627 85.573739 
L 344.001483 88.502024 
L 346.287338 90.873687 
L 348.573194 92.812082 
L 350.859049 94.367389 
L 353.144905 95.537044 
L 355.43076 96.432893 
L 357.716616 97.474746 
L 360.002472 99.442944 
L 362.288327 103.284203 
L 364.574183 109.706436 
L 366.860038 118.73971 
L 369.145894 129.496964 
L 371.431749 140.298453 
L 373.717605 149.157209 
L 376.00346 154.443652 
L 378.289316 155.450833 
L 380.575172 152.620057 
L 382.861027 147.341177 
L 385.146883 141.432992 
L 387.432738 136.53988 
L 389.718594 133.689699 
L 392.004449 133.150235 
L 394.290305 134.563619 
L 396.576161 137.217732 
L 398.862016 140.290001 
L 401.147872 142.971748 
L 403.433727 144.49413 
L 405.719583 144.154141 
L 408.005438 141.432001 
L 410.291294 136.206236 
L 412.577149 128.967124 
L 414.863005 120.875668 
L 417.148861 113.556883 
L 419.434716 108.639197 
L 421.720572 107.191629 
L 424.006427 109.287893 
L 426.292283 113.893699 
L 428.578138 119.141288 
L 430.863994 122.888925 
L 433.149849 123.346233 
L 435.435705 119.53502 
L 437.721561 111.448803 
L 440.007416 99.91718 
L 442.293272 86.296846 
L 444.579127 72.144469 
L 446.864983 58.974028 
L 449.150838 48.108055 
L 451.436694 40.562971 
L 453.72255 36.907001 
L 456.008405 37.091373 
L 458.294261 40.334484 
L 460.580116 45.173817 
L 462.865972 49.756496 
L 465.151827 52.330403 
L 467.437683 51.781259 
L 469.723538 48.005475 
L 472.009394 41.95323 
L 474.29525 35.306887 
L 476.581105 29.914388 
L 478.866961 27.198924 
L 481.152816 27.765144 
L 483.438672 31.322424 
" clip-path="url(#pf7cf86f715)" style="fill: none; stroke-dasharray: 9.6,2.4,1.5,2.4; stroke-dashoffset: 0; stroke: #0f4d92; stroke-width: 1.5"/>
   </g>
   <g id="patch_6">
    <path d="M 293.826953 164.573987 
L 293.826953 20.276884 
" style="fill: none; stroke: #000000; stroke-width: 0.7; stroke-linejoin: miter; stroke-linecap: square"/>
   </g>
   <g id="patch_7">
    <path d="M 293.826953 164.573987 
L 492.467801 164.573987 
" style="fill: none; stroke: #000000; stroke-width: 0.7; stroke-linejoin: miter; stroke-linecap: square"/>
   </g>
   <g id="text_42">
    <text style="font-weight: 700; font-size: 8px; font-family: 'Arial', 'DejaVu Sans', 'Liberation Sans', sans-serif; text-anchor: start" x="268.003643" y="12.92625" transform="rotate(-0 268.003643 12.92625)">b</text>
   </g>
  </g>
  <g id="axes_3">
   <g id="patch_8">
    <path d="M 46.205469 351.773987 
L 244.846317 351.773987 
L 244.846317 207.476884 
L 46.205469 207.476884 
z
" style="fill: #ffffff"/>
   </g>
   <g id="matplotlib.axis_5">
    <g id="xtick_19">
     <g id="line2d_76">
      <path d="M 52.948743 351.773987 
L 52.948743 207.476884 
" clip-path="url(#p9fc0fc0723)" style="fill: none; stroke: #b0b0b0; stroke-opacity: 0.22; stroke-width: 0.5; stroke-linecap: square"/>
     </g>
     <g id="line2d_77">
      <g>
       <use xlink:href="#m5a46085429" x="52.948743" y="351.773987" style="stroke: #000000; stroke-width: 0.6"/>
      </g>
     </g>
     <g id="text_43">
      <text style="font-size: 7px; font-family: 'Arial', 'DejaVu Sans', 'Liberation Sans', sans-serif; text-anchor: middle" x="52.948743" y="363.784456" transform="rotate(-0 52.948743 363.784456)">0.00</text>
     </g>
    </g>
    <g id="xtick_20">
     <g id="line2d_78">
      <path d="M 75.807298 351.773987 
L 75.807298 207.476884 
" clip-path="url(#p9fc0fc0723)" style="fill: none; stroke: #b0b0b0; stroke-opacity: 0.22; stroke-width: 0.5; stroke-linecap: square"/>
     </g>
     <g id="line2d_79">
      <g>
       <use xlink:href="#m5a46085429" x="75.807298" y="351.773987" style="stroke: #000000; stroke-width: 0.6"/>
      </g>
     </g>
     <g id="text_44">
      <text style="font-size: 7px; font-family: 'Arial', 'DejaVu Sans', 'Liberation Sans', sans-serif; text-anchor: middle" x="75.807298" y="363.784456" transform="rotate(-0 75.807298 363.784456)">0.05</text>
     </g>
    </g>
    <g id="xtick_21">
     <g id="line2d_80">
      <path d="M 98.665854 351.773987 
L 98.665854 207.476884 
" clip-path="url(#p9fc0fc0723)" style="fill: none; stroke: #b0b0b0; stroke-opacity: 0.22; stroke-width: 0.5; stroke-linecap: square"/>
     </g>
     <g id="line2d_81">
      <g>
       <use xlink:href="#m5a46085429" x="98.665854" y="351.773987" style="stroke: #000000; stroke-width: 0.6"/>
      </g>
     </g>
     <g id="text_45">
      <text style="font-size: 7px; font-family: 'Arial', 'DejaVu Sans', 'Liberation Sans', sans-serif; text-anchor: middle" x="98.665854" y="363.784456" transform="rotate(-0 98.665854 363.784456)">0.10</text>
     </g>
    </g>
    <g id="xtick_22">
     <g id="line2d_82">
      <path d="M 121.524409 351.773987 
L 121.524409 207.476884 
" clip-path="url(#p9fc0fc0723)" style="fill: none; stroke: #b0b0b0; stroke-opacity: 0.22; stroke-width: 0.5; stroke-linecap: square"/>
     </g>
     <g id="line2d_83">
      <g>
       <use xlink:href="#m5a46085429" x="121.524409" y="351.773987" style="stroke: #000000; stroke-width: 0.6"/>
      </g>
     </g>
     <g id="text_46">
      <text style="font-size: 7px; font-family: 'Arial', 'DejaVu Sans', 'Liberation Sans', sans-serif; text-anchor: middle" x="121.524409" y="363.784456" transform="rotate(-0 121.524409 363.784456)">0.15</text>
     </g>
    </g>
    <g id="xtick_23">
     <g id="line2d_84">
      <path d="M 144.382965 351.773987 
L 144.382965 207.476884 
" clip-path="url(#p9fc0fc0723)" style="fill: none; stroke: #b0b0b0; stroke-opacity: 0.22; stroke-width: 0.5; stroke-linecap: square"/>
     </g>
     <g id="line2d_85">
      <g>
       <use xlink:href="#m5a46085429" x="144.382965" y="351.773987" style="stroke: #000000; stroke-width: 0.6"/>
      </g>
     </g>
     <g id="text_47">
      <text style="font-size: 7px; font-family: 'Arial', 'DejaVu Sans', 'Liberation Sans', sans-serif; text-anchor: middle" x="144.382965" y="363.784456" transform="rotate(-0 144.382965 363.784456)">0.20</text>
     </g>
    </g>
    <g id="xtick_24">
     <g id="line2d_86">
      <path d="M 167.241521 351.773987 
L 167.241521 207.476884 
" clip-path="url(#p9fc0fc0723)" style="fill: none; stroke: #b0b0b0; stroke-opacity: 0.22; stroke-width: 0.5; stroke-linecap: square"/>
     </g>
     <g id="line2d_87">
      <g>
       <use xlink:href="#m5a46085429" x="167.241521" y="351.773987" style="stroke: #000000; stroke-width: 0.6"/>
      </g>
     </g>
     <g id="text_48">
      <text style="font-size: 7px; font-family: 'Arial', 'DejaVu Sans', 'Liberation Sans', sans-serif; text-anchor: middle" x="167.241521" y="363.784456" transform="rotate(-0 167.241521 363.784456)">0.25</text>
     </g>
    </g>
    <g id="xtick_25">
     <g id="line2d_88">
      <path d="M 190.100076 351.773987 
L 190.100076 207.476884 
" clip-path="url(#p9fc0fc0723)" style="fill: none; stroke: #b0b0b0; stroke-opacity: 0.22; stroke-width: 0.5; stroke-linecap: square"/>
     </g>
     <g id="line2d_89">
      <g>
       <use xlink:href="#m5a46085429" x="190.100076" y="351.773987" style="stroke: #000000; stroke-width: 0.6"/>
      </g>
     </g>
     <g id="text_49">
      <text style="font-size: 7px; font-family: 'Arial', 'DejaVu Sans', 'Liberation Sans', sans-serif; text-anchor: middle" x="190.100076" y="363.784456" transform="rotate(-0 190.100076 363.784456)">0.30</text>
     </g>
    </g>
    <g id="xtick_26">
     <g id="line2d_90">
      <path d="M 212.958632 351.773987 
L 212.958632 207.476884 
" clip-path="url(#p9fc0fc0723)" style="fill: none; stroke: #b0b0b0; stroke-opacity: 0.22; stroke-width: 0.5; stroke-linecap: square"/>
     </g>
     <g id="line2d_91">
      <g>
       <use xlink:href="#m5a46085429" x="212.958632" y="351.773987" style="stroke: #000000; stroke-width: 0.6"/>
      </g>
     </g>
     <g id="text_50">
      <text style="font-size: 7px; font-family: 'Arial', 'DejaVu Sans', 'Liberation Sans', sans-serif; text-anchor: middle" x="212.958632" y="363.784456" transform="rotate(-0 212.958632 363.784456)">0.35</text>
     </g>
    </g>
    <g id="xtick_27">
     <g id="line2d_92">
      <path d="M 235.817187 351.773987 
L 235.817187 207.476884 
" clip-path="url(#p9fc0fc0723)" style="fill: none; stroke: #b0b0b0; stroke-opacity: 0.22; stroke-width: 0.5; stroke-linecap: square"/>
     </g>
     <g id="line2d_93">
      <g>
       <use xlink:href="#m5a46085429" x="235.817187" y="351.773987" style="stroke: #000000; stroke-width: 0.6"/>
      </g>
     </g>
     <g id="text_51">
      <text style="font-size: 7px; font-family: 'Arial', 'DejaVu Sans', 'Liberation Sans', sans-serif; text-anchor: middle" x="235.817187" y="363.784456" transform="rotate(-0 235.817187 363.784456)">0.40</text>
     </g>
    </g>
    <g id="text_52">
     <text style="font-size: 7px; font-family: 'Arial', 'DejaVu Sans', 'Liberation Sans', sans-serif; text-anchor: middle" x="145.525893" y="374.186175" transform="rotate(-0 145.525893 374.186175)">time</text>
    </g>
   </g>
   <g id="matplotlib.axis_6">
    <g id="ytick_16">
     <g id="line2d_94">
      <path d="M 46.205469 345.398051 
L 244.846317 345.398051 
" clip-path="url(#p9fc0fc0723)" style="fill: none; stroke: #b0b0b0; stroke-opacity: 0.22; stroke-width: 0.5; stroke-linecap: square"/>
     </g>
     <g id="line2d_95">
      <g>
       <use xlink:href="#mc37e0bc7c7" x="46.205469" y="345.398051" style="stroke: #000000; stroke-width: 0.6"/>
      </g>
     </g>
     <g id="text_53">
      <text style="font-size: 7px; font-family: 'Arial', 'DejaVu Sans', 'Liberation Sans', sans-serif; text-anchor: end" x="39.205469" y="347.903285" transform="rotate(-0 39.205469 347.903285)">0.000</text>
     </g>
    </g>
    <g id="ytick_17">
     <g id="line2d_96">
      <path d="M 46.205469 314.054094 
L 244.846317 314.054094 
" clip-path="url(#p9fc0fc0723)" style="fill: none; stroke: #b0b0b0; stroke-opacity: 0.22; stroke-width: 0.5; stroke-linecap: square"/>
     </g>
     <g id="line2d_97">
      <g>
       <use xlink:href="#mc37e0bc7c7" x="46.205469" y="314.054094" style="stroke: #000000; stroke-width: 0.6"/>
      </g>
     </g>
     <g id="text_54">
      <text style="font-size: 7px; font-family: 'Arial', 'DejaVu Sans', 'Liberation Sans', sans-serif; text-anchor: end" x="39.205469" y="316.559329" transform="rotate(-0 39.205469 316.559329)">0.005</text>
     </g>
    </g>
    <g id="ytick_18">
     <g id="line2d_98">
      <path d="M 46.205469 282.710138 
L 244.846317 282.710138 
" clip-path="url(#p9fc0fc0723)" style="fill: none; stroke: #b0b0b0; stroke-opacity: 0.22; stroke-width: 0.5; stroke-linecap: square"/>
     </g>
     <g id="line2d_99">
      <g>
       <use xlink:href="#mc37e0bc7c7" x="46.205469" y="282.710138" style="stroke: #000000; stroke-width: 0.6"/>
      </g>
     </g>
     <g id="text_55">
      <text style="font-size: 7px; font-family: 'Arial', 'DejaVu Sans', 'Liberation Sans', sans-serif; text-anchor: end" x="39.205469" y="285.215372" transform="rotate(-0 39.205469 285.215372)">0.010</text>
     </g>
    </g>
    <g id="ytick_19">
     <g id="line2d_100">
      <path d="M 46.205469 251.366182 
L 244.846317 251.366182 
" clip-path="url(#p9fc0fc0723)" style="fill: none; stroke: #b0b0b0; stroke-opacity: 0.22; stroke-width: 0.5; stroke-linecap: square"/>
     </g>
     <g id="line2d_101">
      <g>
       <use xlink:href="#mc37e0bc7c7" x="46.205469" y="251.366182" style="stroke: #000000; stroke-width: 0.6"/>
      </g>
     </g>
     <g id="text_56">
      <text style="font-size: 7px; font-family: 'Arial', 'DejaVu Sans', 'Liberation Sans', sans-serif; text-anchor: end" x="39.205469" y="253.871416" transform="rotate(-0 39.205469 253.871416)">0.015</text>
     </g>
    </g>
    <g id="ytick_20">
     <g id="line2d_102">
      <path d="M 46.205469 220.022226 
L 244.846317 220.022226 
" clip-path="url(#p9fc0fc0723)" style="fill: none; stroke: #b0b0b0; stroke-opacity: 0.22; stroke-width: 0.5; stroke-linecap: square"/>
     </g>
     <g id="line2d_103">
      <g>
       <use xlink:href="#mc37e0bc7c7" x="46.205469" y="220.022226" style="stroke: #000000; stroke-width: 0.6"/>
      </g>
     </g>
     <g id="text_57">
      <text style="font-size: 7px; font-family: 'Arial', 'DejaVu Sans', 'Liberation Sans', sans-serif; text-anchor: end" x="39.205469" y="222.52746" transform="rotate(-0 39.205469 222.52746)">0.020</text>
     </g>
    </g>
    <g id="text_58">
     <text style="font-size: 7px; font-family: 'Arial', 'DejaVu Sans', 'Liberation Sans', sans-serif; text-anchor: middle" x="16.298906" y="279.625436" transform="rotate(-90 16.298906 279.625436)">Uz</text>
    </g>
   </g>
   <g id="line2d_104">
    <path d="M 55.234598 345.032404 
L 57.520454 344.061674 
L 59.806309 342.80171 
L 62.092165 341.610011 
L 64.37802 340.729009 
L 66.663876 340.192469 
L 68.949732 339.838521 
L 71.235587 339.415557 
L 73.521443 338.720402 
L 75.807298 337.69474 
L 78.093154 336.431805 
L 80.379009 335.096182 
L 82.664865 333.80678 
L 84.95072 332.551855 
L 87.236576 331.185403 
L 89.522432 329.507436 
L 91.808287 327.383268 
L 94.094143 324.834039 
L 96.379998 322.045543 
L 98.665854 319.286604 
L 100.951709 316.777721 
L 103.237565 314.578548 
L 105.523421 312.554267 
L 107.809276 310.439835 
L 110.095132 307.969931 
L 112.380987 305.008354 
L 114.666843 301.611296 
L 116.952698 297.994178 
L 119.238554 294.422434 
L 121.524409 291.085343 
L 123.810265 288.019127 
L 126.096121 285.117178 
L 128.381976 282.217474 
L 130.667832 279.215976 
L 132.953687 276.141072 
L 135.239543 273.147975 
L 137.525398 270.43434 
L 139.811254 268.124165 
L 142.097109 266.18341 
L 144.382965 264.416426 
L 146.668821 262.547887 
L 148.954676 260.351052 
L 151.240532 257.75665 
L 153.526387 254.887926 
L 155.812243 252.001837 
L 158.098098 249.368067 
L 160.383954 247.144402 
L 162.66981 245.310529 
L 164.955665 243.689357 
L 167.241521 242.04148 
L 169.527376 240.181718 
L 171.813232 238.058604 
L 174.099087 235.761092 
L 176.384943 233.455618 
L 178.670798 231.292196 
L 180.956654 229.3337 
L 183.24251 227.543897 
L 185.528365 225.836467 
L 187.814221 224.153108 
L 190.100076 222.520903 
L 192.385932 221.054006 
L 194.671787 219.895345 
L 196.957643 219.129236 
L 199.243498 218.715057 
L 201.529354 218.481733 
L 203.81521 218.192867 
L 206.101065 217.653625 
L 208.386921 216.807276 
L 210.672776 215.77211 
L 212.958632 214.797502 
L 215.244487 214.15821 
L 217.530343 214.035843 
L 219.816198 214.44413 
L 222.102054 215.230926 
L 224.38791 216.15388 
L 226.673765 216.991453 
L 228.959621 217.634568 
L 231.245476 218.117641 
L 233.531332 218.579589 
L 235.817187 219.180013 
" clip-path="url(#p9fc0fc0723)" style="fill: none; stroke: #42949e; stroke-width: 1.5; stroke-linecap: square"/>
   </g>
   <g id="line2d_105">
    <path d="M 55.234598 345.214474 
L 57.520454 344.543285 
L 59.806309 343.423496 
L 62.092165 342.196023 
L 64.37802 341.16445 
L 66.663876 340.465922 
L 68.949732 340.03075 
L 71.235587 339.645306 
L 73.521443 339.078921 
L 75.807298 338.204176 
L 78.093154 337.047256 
L 80.379009 335.746049 
L 82.664865 334.44543 
L 84.95072 333.193183 
L 87.236576 331.898088 
L 89.522432 330.375278 
L 91.808287 328.453808 
L 94.094143 326.085212 
L 96.379998 323.389943 
L 98.665854 320.611952 
L 100.951709 318.002187 
L 103.237565 315.691583 
L 105.523421 313.62139 
L 107.809276 311.569191 
L 110.095132 309.258495 
L 112.380987 306.495615 
L 114.666843 303.263378 
L 116.952698 299.72454 
L 119.238554 296.135953 
L 121.524409 292.721325 
L 123.810265 289.570977 
L 126.096121 286.620458 
L 128.381976 283.715757 
L 130.667832 280.725401 
L 132.953687 277.634658 
L 135.239543 274.567798 
L 137.525398 271.724834 
L 139.811254 269.266999 
L 142.097109 267.214431 
L 144.382965 265.414168 
L 146.668821 263.599449 
L 148.954676 261.512456 
L 151.240532 259.028251 
L 153.526387 256.216064 
L 155.812243 253.306128 
L 158.098098 250.578849 
L 160.383954 248.232471 
L 162.66981 246.295249 
L 164.955665 244.62373 
L 167.241521 242.983716 
L 169.527376 241.168775 
L 171.813232 239.094523 
L 174.099087 236.823077 
L 176.384943 234.51131 
L 178.670798 232.317169 
L 180.956654 230.318479 
L 183.24251 228.488418 
L 185.528365 226.737643 
L 187.814221 224.994513 
L 190.100076 223.27325 
L 192.385932 221.68708 
L 194.671787 220.3951 
L 196.957643 219.51025 
L 199.243498 219.019841 
L 201.529354 218.765951 
L 203.81521 218.502583 
L 206.101065 218.005513 
L 208.386921 217.181374 
L 210.672776 216.120383 
L 212.958632 215.064019 
L 215.244487 214.30109 
L 217.530343 214.04141 
L 219.816198 214.327348 
L 222.102054 215.024292 
L 224.38791 215.891718 
L 226.673765 216.697277 
L 228.959621 217.317036 
L 231.245476 217.774833 
L 233.531332 218.206721 
L 235.817187 218.774955 
" clip-path="url(#p9fc0fc0723)" style="fill: none; stroke-dasharray: 5.55,2.4; stroke-dashoffset: 0; stroke: #272727; stroke-width: 1.5"/>
   </g>
   <g id="line2d_106">
    <path d="M 55.234598 345.215028 
L 57.520454 344.545674 
L 59.806309 343.428216 
L 62.092165 342.201542 
L 64.37802 341.167559 
L 66.663876 340.463031 
L 68.949732 340.019661 
L 71.235587 339.626709 
L 73.521443 339.056946 
L 75.807298 338.18565 
L 78.093154 337.039788 
L 80.379009 335.75551 
L 82.664865 334.473636 
L 84.95072 333.236583 
L 87.236576 331.947937 
L 89.522432 330.419383 
L 91.808287 328.479423 
L 94.094143 326.082394 
L 96.379998 323.354501 
L 98.665854 320.54724 
L 100.951709 317.91922 
L 103.237565 315.607322 
L 105.523421 313.555422 
L 107.809276 311.539386 
L 110.095132 309.276526 
L 112.380987 306.563365 
L 114.666843 303.371225 
L 116.952698 299.852233 
L 119.238554 296.256233 
L 121.524409 292.805795 
L 123.810265 289.596978 
L 126.096121 286.577253 
L 128.381976 283.608265 
L 130.667832 280.574188 
L 132.953687 277.471815 
L 135.239543 274.429539 
L 137.525398 271.642647 
L 139.811254 269.259757 
L 142.097109 267.283701 
L 144.382965 265.544067 
L 146.668821 263.761052 
L 148.954676 261.67139 
L 151.240532 259.15318 
L 153.526387 256.285587 
L 155.812243 253.312298 
L 158.098098 250.526711 
L 160.383954 248.136409 
L 162.66981 246.173873 
L 164.955665 244.495306 
L 167.241521 242.863586 
L 169.527376 241.069122 
L 171.813232 239.025697 
L 174.099087 236.794938 
L 176.384943 234.5331 
L 178.670798 232.39515 
L 180.956654 230.451866 
L 183.24251 228.665226 
L 185.528365 226.932672 
L 187.814221 225.171313 
L 190.100076 223.390688 
L 192.385932 221.709424 
L 194.671787 220.302967 
L 196.957643 219.308971 
L 199.243498 218.742089 
L 201.529354 218.466983 
L 203.81521 218.248563 
L 206.101065 217.857626 
L 208.386921 217.179909 
L 210.672776 216.273278 
L 212.958632 215.343269 
L 215.244487 214.648307 
L 217.530343 214.381276 
L 219.816198 214.585495 
L 222.102054 215.144941 
L 224.38791 215.850512 
L 226.673765 216.506162 
L 228.959621 217.020222 
L 231.245476 217.437278 
L 233.531332 217.898428 
L 235.817187 218.55526 
" clip-path="url(#p9fc0fc0723)" style="fill: none; stroke-dasharray: 9.6,2.4,1.5,2.4; stroke-dashoffset: 0; stroke: #0f4d92; stroke-width: 1.5"/>
   </g>
   <g id="patch_9">
    <path d="M 46.205469 351.773987 
L 46.205469 207.476884 
" style="fill: none; stroke: #000000; stroke-width: 0.7; stroke-linejoin: miter; stroke-linecap: square"/>
   </g>
   <g id="patch_10">
    <path d="M 46.205469 351.773987 
L 244.846317 351.773987 
" style="fill: none; stroke: #000000; stroke-width: 0.7; stroke-linejoin: miter; stroke-linecap: square"/>
   </g>
   <g id="text_59">
    <text style="font-weight: 700; font-size: 8px; font-family: 'Arial', 'DejaVu Sans', 'Liberation Sans', sans-serif; text-anchor: start" x="20.382158" y="200.12625" transform="rotate(-0 20.382158 200.12625)">c</text>
   </g>
  </g>
  <g id="axes_4">
   <g id="patch_11">
    <path d="M 293.826953 351.773987 
L 492.467801 351.773987 
L 492.467801 207.476884 
L 293.826953 207.476884 
z
" style="fill: #ffffff"/>
   </g>
   <g id="matplotlib.axis_7">
    <g id="xtick_28">
     <g id="line2d_107">
      <path d="M 300.570227 351.773987 
L 300.570227 207.476884 
" clip-path="url(#pbfeb59a5c8)" style="fill: none; stroke: #b0b0b0; stroke-opacity: 0.22; stroke-width: 0.5; stroke-linecap: square"/>
     </g>
     <g id="line2d_108">
      <g>
       <use xlink:href="#m5a46085429" x="300.570227" y="351.773987" style="stroke: #000000; stroke-width: 0.6"/>
      </g>
     </g>
     <g id="text_60">
      <text style="font-size: 7px; font-family: 'Arial', 'DejaVu Sans', 'Liberation Sans', sans-serif; text-anchor: middle" x="300.570227" y="363.784456" transform="rotate(-0 300.570227 363.784456)">0.00</text>
     </g>
    </g>
    <g id="xtick_29">
     <g id="line2d_109">
      <path d="M 323.428783 351.773987 
L 323.428783 207.476884 
" clip-path="url(#pbfeb59a5c8)" style="fill: none; stroke: #b0b0b0; stroke-opacity: 0.22; stroke-width: 0.5; stroke-linecap: square"/>
     </g>
     <g id="line2d_110">
      <g>
       <use xlink:href="#m5a46085429" x="323.428783" y="351.773987" style="stroke: #000000; stroke-width: 0.6"/>
      </g>
     </g>
     <g id="text_61">
      <text style="font-size: 7px; font-family: 'Arial', 'DejaVu Sans', 'Liberation Sans', sans-serif; text-anchor: middle" x="323.428783" y="363.784456" transform="rotate(-0 323.428783 363.784456)">0.05</text>
     </g>
    </g>
    <g id="xtick_30">
     <g id="line2d_111">
      <path d="M 346.287338 351.773987 
L 346.287338 207.476884 
" clip-path="url(#pbfeb59a5c8)" style="fill: none; stroke: #b0b0b0; stroke-opacity: 0.22; stroke-width: 0.5; stroke-linecap: square"/>
     </g>
     <g id="line2d_112">
      <g>
       <use xlink:href="#m5a46085429" x="346.287338" y="351.773987" style="stroke: #000000; stroke-width: 0.6"/>
      </g>
     </g>
     <g id="text_62">
      <text style="font-size: 7px; font-family: 'Arial', 'DejaVu Sans', 'Liberation Sans', sans-serif; text-anchor: middle" x="346.287338" y="363.784456" transform="rotate(-0 346.287338 363.784456)">0.10</text>
     </g>
    </g>
    <g id="xtick_31">
     <g id="line2d_113">
      <path d="M 369.145894 351.773987 
L 369.145894 207.476884 
" clip-path="url(#pbfeb59a5c8)" style="fill: none; stroke: #b0b0b0; stroke-opacity: 0.22; stroke-width: 0.5; stroke-linecap: square"/>
     </g>
     <g id="line2d_114">
      <g>
       <use xlink:href="#m5a46085429" x="369.145894" y="351.773987" style="stroke: #000000; stroke-width: 0.6"/>
      </g>
     </g>
     <g id="text_63">
      <text style="font-size: 7px; font-family: 'Arial', 'DejaVu Sans', 'Liberation Sans', sans-serif; text-anchor: middle" x="369.145894" y="363.784456" transform="rotate(-0 369.145894 363.784456)">0.15</text>
     </g>
    </g>
    <g id="xtick_32">
     <g id="line2d_115">
      <path d="M 392.004449 351.773987 
L 392.004449 207.476884 
" clip-path="url(#pbfeb59a5c8)" style="fill: none; stroke: #b0b0b0; stroke-opacity: 0.22; stroke-width: 0.5; stroke-linecap: square"/>
     </g>
     <g id="line2d_116">
      <g>
       <use xlink:href="#m5a46085429" x="392.004449" y="351.773987" style="stroke: #000000; stroke-width: 0.6"/>
      </g>
     </g>
     <g id="text_64">
      <text style="font-size: 7px; font-family: 'Arial', 'DejaVu Sans', 'Liberation Sans', sans-serif; text-anchor: middle" x="392.004449" y="363.784456" transform="rotate(-0 392.004449 363.784456)">0.20</text>
     </g>
    </g>
    <g id="xtick_33">
     <g id="line2d_117">
      <path d="M 414.863005 351.773987 
L 414.863005 207.476884 
" clip-path="url(#pbfeb59a5c8)" style="fill: none; stroke: #b0b0b0; stroke-opacity: 0.22; stroke-width: 0.5; stroke-linecap: square"/>
     </g>
     <g id="line2d_118">
      <g>
       <use xlink:href="#m5a46085429" x="414.863005" y="351.773987" style="stroke: #000000; stroke-width: 0.6"/>
      </g>
     </g>
     <g id="text_65">
      <text style="font-size: 7px; font-family: 'Arial', 'DejaVu Sans', 'Liberation Sans', sans-serif; text-anchor: middle" x="414.863005" y="363.784456" transform="rotate(-0 414.863005 363.784456)">0.25</text>
     </g>
    </g>
    <g id="xtick_34">
     <g id="line2d_119">
      <path d="M 437.721561 351.773987 
L 437.721561 207.476884 
" clip-path="url(#pbfeb59a5c8)" style="fill: none; stroke: #b0b0b0; stroke-opacity: 0.22; stroke-width: 0.5; stroke-linecap: square"/>
     </g>
     <g id="line2d_120">
      <g>
       <use xlink:href="#m5a46085429" x="437.721561" y="351.773987" style="stroke: #000000; stroke-width: 0.6"/>
      </g>
     </g>
     <g id="text_66">
      <text style="font-size: 7px; font-family: 'Arial', 'DejaVu Sans', 'Liberation Sans', sans-serif; text-anchor: middle" x="437.721561" y="363.784456" transform="rotate(-0 437.721561 363.784456)">0.30</text>
     </g>
    </g>
    <g id="xtick_35">
     <g id="line2d_121">
      <path d="M 460.580116 351.773987 
L 460.580116 207.476884 
" clip-path="url(#pbfeb59a5c8)" style="fill: none; stroke: #b0b0b0; stroke-opacity: 0.22; stroke-width: 0.5; stroke-linecap: square"/>
     </g>
     <g id="line2d_122">
      <g>
       <use xlink:href="#m5a46085429" x="460.580116" y="351.773987" style="stroke: #000000; stroke-width: 0.6"/>
      </g>
     </g>
     <g id="text_67">
      <text style="font-size: 7px; font-family: 'Arial', 'DejaVu Sans', 'Liberation Sans', sans-serif; text-anchor: middle" x="460.580116" y="363.784456" transform="rotate(-0 460.580116 363.784456)">0.35</text>
     </g>
    </g>
    <g id="xtick_36">
     <g id="line2d_123">
      <path d="M 483.438672 351.773987 
L 483.438672 207.476884 
" clip-path="url(#pbfeb59a5c8)" style="fill: none; stroke: #b0b0b0; stroke-opacity: 0.22; stroke-width: 0.5; stroke-linecap: square"/>
     </g>
     <g id="line2d_124">
      <g>
       <use xlink:href="#m5a46085429" x="483.438672" y="351.773987" style="stroke: #000000; stroke-width: 0.6"/>
      </g>
     </g>
     <g id="text_68">
      <text style="font-size: 7px; font-family: 'Arial', 'DejaVu Sans', 'Liberation Sans', sans-serif; text-anchor: middle" x="483.438672" y="363.784456" transform="rotate(-0 483.438672 363.784456)">0.40</text>
     </g>
    </g>
    <g id="text_69">
     <text style="font-size: 7px; font-family: 'Arial', 'DejaVu Sans', 'Liberation Sans', sans-serif; text-anchor: middle" x="393.147377" y="374.186175" transform="rotate(-0 393.147377 374.186175)">time</text>
    </g>
   </g>
   <g id="matplotlib.axis_8">
    <g id="ytick_21">
     <g id="line2d_125">
      <path d="M 293.826953 345.302717 
L 492.467801 345.302717 
" clip-path="url(#pbfeb59a5c8)" style="fill: none; stroke: #b0b0b0; stroke-opacity: 0.22; stroke-width: 0.5; stroke-linecap: square"/>
     </g>
     <g id="line2d_126">
      <g>
       <use xlink:href="#mc37e0bc7c7" x="293.826953" y="345.302717" style="stroke: #000000; stroke-width: 0.6"/>
      </g>
     </g>
     <g id="text_70">
      <text style="font-size: 7px; font-family: 'Arial', 'DejaVu Sans', 'Liberation Sans', sans-serif; text-anchor: end" x="286.826953" y="347.807952" transform="rotate(-0 286.826953 347.807952)">0.00000</text>
     </g>
    </g>
    <g id="ytick_22">
     <g id="line2d_127">
      <path d="M 293.826953 322.336061 
L 492.467801 322.336061 
" clip-path="url(#pbfeb59a5c8)" style="fill: none; stroke: #b0b0b0; stroke-opacity: 0.22; stroke-width: 0.5; stroke-linecap: square"/>
     </g>
     <g id="line2d_128">
      <g>
       <use xlink:href="#mc37e0bc7c7" x="293.826953" y="322.336061" style="stroke: #000000; stroke-width: 0.6"/>
      </g>
     </g>
     <g id="text_71">
      <text style="font-size: 7px; font-family: 'Arial', 'DejaVu Sans', 'Liberation Sans', sans-serif; text-anchor: end" x="286.826953" y="324.841296" transform="rotate(-0 286.826953 324.841296)">0.00005</text>
     </g>
    </g>
    <g id="ytick_23">
     <g id="line2d_129">
      <path d="M 293.826953 299.369405 
L 492.467801 299.369405 
" clip-path="url(#pbfeb59a5c8)" style="fill: none; stroke: #b0b0b0; stroke-opacity: 0.22; stroke-width: 0.5; stroke-linecap: square"/>
     </g>
     <g id="line2d_130">
      <g>
       <use xlink:href="#mc37e0bc7c7" x="293.826953" y="299.369405" style="stroke: #000000; stroke-width: 0.6"/>
      </g>
     </g>
     <g id="text_72">
      <text style="font-size: 7px; font-family: 'Arial', 'DejaVu Sans', 'Liberation Sans', sans-serif; text-anchor: end" x="286.826953" y="301.874639" transform="rotate(-0 286.826953 301.874639)">0.00010</text>
     </g>
    </g>
    <g id="ytick_24">
     <g id="line2d_131">
      <path d="M 293.826953 276.402749 
L 492.467801 276.402749 
" clip-path="url(#pbfeb59a5c8)" style="fill: none; stroke: #b0b0b0; stroke-opacity: 0.22; stroke-width: 0.5; stroke-linecap: square"/>
     </g>
     <g id="line2d_132">
      <g>
       <use xlink:href="#mc37e0bc7c7" x="293.826953" y="276.402749" style="stroke: #000000; stroke-width: 0.6"/>
      </g>
     </g>
     <g id="text_73">
      <text style="font-size: 7px; font-family: 'Arial', 'DejaVu Sans', 'Liberation Sans', sans-serif; text-anchor: end" x="286.826953" y="278.907983" transform="rotate(-0 286.826953 278.907983)">0.00015</text>
     </g>
    </g>
    <g id="ytick_25">
     <g id="line2d_133">
      <path d="M 293.826953 253.436093 
L 492.467801 253.436093 
" clip-path="url(#pbfeb59a5c8)" style="fill: none; stroke: #b0b0b0; stroke-opacity: 0.22; stroke-width: 0.5; stroke-linecap: square"/>
     </g>
     <g id="line2d_134">
      <g>
       <use xlink:href="#mc37e0bc7c7" x="293.826953" y="253.436093" style="stroke: #000000; stroke-width: 0.6"/>
      </g>
     </g>
     <g id="text_74">
      <text style="font-size: 7px; font-family: 'Arial', 'DejaVu Sans', 'Liberation Sans', sans-serif; text-anchor: end" x="286.826953" y="255.941327" transform="rotate(-0 286.826953 255.941327)">0.00020</text>
     </g>
    </g>
    <g id="ytick_26">
     <g id="line2d_135">
      <path d="M 293.826953 230.469437 
L 492.467801 230.469437 
" clip-path="url(#pbfeb59a5c8)" style="fill: none; stroke: #b0b0b0; stroke-opacity: 0.22; stroke-width: 0.5; stroke-linecap: square"/>
     </g>
     <g id="line2d_136">
      <g>
       <use xlink:href="#mc37e0bc7c7" x="293.826953" y="230.469437" style="stroke: #000000; stroke-width: 0.6"/>
      </g>
     </g>
     <g id="text_75">
      <text style="font-size: 7px; font-family: 'Arial', 'DejaVu Sans', 'Liberation Sans', sans-serif; text-anchor: end" x="286.826953" y="232.974671" transform="rotate(-0 286.826953 232.974671)">0.00025</text>
     </g>
    </g>
    <g id="ytick_27">
     <g id="line2d_137">
      <path d="M 293.826953 207.502781 
L 492.467801 207.502781 
" clip-path="url(#pbfeb59a5c8)" style="fill: none; stroke: #b0b0b0; stroke-opacity: 0.22; stroke-width: 0.5; stroke-linecap: square"/>
     </g>
     <g id="line2d_138">
      <g>
       <use xlink:href="#mc37e0bc7c7" x="293.826953" y="207.502781" style="stroke: #000000; stroke-width: 0.6"/>
      </g>
     </g>
     <g id="text_76">
      <text style="font-size: 7px; font-family: 'Arial', 'DejaVu Sans', 'Liberation Sans', sans-serif; text-anchor: end" x="286.826953" y="210.008015" transform="rotate(-0 286.826953 210.008015)">0.00030</text>
     </g>
    </g>
    <g id="text_77">
     <text style="font-size: 7px; font-family: 'Arial', 'DejaVu Sans', 'Liberation Sans', sans-serif; text-anchor: middle" x="256.135078" y="279.625436" transform="rotate(-90 256.135078 279.625436)">instantaneous error norm</text>
    </g>
   </g>
   <g id="line2d_139">
    <path d="M 302.856083 331.958362 
L 305.141938 309.963159 
L 307.427794 299.397625 
L 309.713649 300.97021 
L 311.999505 309.523761 
L 314.28536 317.837611 
L 316.571216 322.774333 
L 318.857072 323.622879 
L 321.142927 316.954335 
L 323.428783 306.521499 
L 325.714638 299.263168 
L 328.000494 297.449332 
L 330.286349 297.960719 
L 332.572205 295.455068 
L 334.85806 287.563112 
L 337.143916 275.396583 
L 339.429772 261.385838 
L 341.715627 249.29439 
L 344.001483 243.095406 
L 346.287338 244.340718 
L 348.573194 250.713576 
L 350.859049 257.195051 
L 353.144905 259.14754 
L 355.43076 254.601267 
L 357.716616 244.282317 
L 360.002472 231.246431 
L 362.288327 219.9632 
L 364.574183 214.035843 
L 366.860038 214.307271 
L 369.145894 218.814279 
L 371.431749 224.316391 
L 373.717605 228.134243 
L 376.00346 229.371359 
L 378.289316 229.368691 
L 380.575172 230.963347 
L 382.861027 236.578682 
L 385.146883 246.363993 
L 387.432738 257.822431 
L 389.718594 266.994951 
L 392.004449 270.465515 
L 394.290305 267.220214 
L 396.576161 259.466195 
L 398.862016 251.467959 
L 401.147872 247.246878 
L 403.433727 248.544801 
L 405.719583 254.188493 
L 408.005438 261.049686 
L 410.291294 266.202768 
L 412.577149 268.5407 
L 414.863005 268.497189 
L 417.148861 267.021083 
L 419.434716 265.25822 
L 421.720572 264.360007 
L 424.006427 264.931856 
L 426.292283 266.698911 
L 428.578138 268.876393 
L 430.863994 270.838512 
L 433.149849 272.627001 
L 435.435705 274.993485 
L 437.721561 278.789772 
L 440.007416 284.233915 
L 442.293272 290.709113 
L 444.579127 297.34214 
L 446.864983 303.695389 
L 449.150838 309.471573 
L 451.436694 313.723838 
L 453.72255 315.631518 
L 456.008405 316.547531 
L 458.294261 319.253798 
L 460.580116 325.372102 
L 462.865972 334.46978 
L 465.151827 342.751395 
L 467.437683 334.937796 
L 469.723538 327.086947 
L 472.009394 321.578578 
L 474.29525 318.171128 
L 476.581105 316.151693 
L 478.866961 314.673922 
L 481.152816 313.049689 
L 483.438672 311.01051 
" clip-path="url(#pbfeb59a5c8)" style="fill: none; stroke: #42949e; stroke-width: 1.5; stroke-linecap: square"/>
   </g>
   <g id="line2d_140">
    <path d="M 302.856083 345.215028 
L 305.141938 344.912742 
L 307.427794 344.486196 
L 309.713649 344.230875 
L 311.999505 344.446533 
L 314.28536 344.987072 
L 316.571216 343.637264 
L 318.857072 341.860846 
L 321.142927 340.482476 
L 323.428783 340.302524 
L 325.714638 341.932499 
L 328.000494 344.322093 
L 330.286349 339.82568 
L 332.572205 334.900325 
L 334.85806 331.831519 
L 337.143916 332.319726 
L 339.429772 337.187838 
L 341.715627 344.729054 
L 344.001483 334.316358 
L 346.287338 325.230363 
L 348.573194 320.647849 
L 350.859049 322.68931 
L 353.144905 331.474112 
L 355.43076 341.922176 
L 357.716616 329.60616 
L 360.002472 318.077613 
L 362.288327 313.203448 
L 364.574183 316.511377 
L 366.860038 326.587269 
L 369.145894 336.454365 
L 371.431749 329.391894 
L 373.717605 319.786702 
L 376.00346 315.813715 
L 378.289316 318.002976 
L 380.575172 324.249204 
L 382.861027 330.895341 
L 385.146883 333.954352 
L 387.432738 332.824953 
L 389.718594 330.281429 
L 392.004449 327.804594 
L 394.290305 326.489953 
L 396.576161 327.361254 
L 398.862016 330.442613 
L 401.147872 334.433487 
L 403.433727 337.525061 
L 405.719583 338.374843 
L 408.005438 334.973675 
L 410.291294 327.618227 
L 412.577149 319.60907 
L 414.863005 314.705942 
L 417.148861 315.97955 
L 419.434716 324.713837 
L 421.720572 339.684728 
L 424.006427 332.454779 
L 426.292283 315.796588 
L 428.578138 304.910455 
L 430.863994 302.616786 
L 433.149849 309.264156 
L 435.435705 322.233949 
L 437.721561 332.198876 
L 440.007416 323.046496 
L 442.293272 310.138615 
L 444.579127 302.221343 
L 446.864983 301.146309 
L 449.150838 306.790946 
L 451.436694 317.57378 
L 453.72255 328.917726 
L 456.008405 327.386612 
L 458.294261 315.034762 
L 460.580116 304.573395 
L 462.865972 300.47393 
L 465.151827 304.332826 
L 467.437683 315.759193 
L 469.723538 332.450939 
L 472.009394 337.595837 
L 474.29525 320.748377 
L 476.581105 308.352234 
L 478.866961 303.020592 
L 481.152816 305.304811 
L 483.438672 314.083853 
" clip-path="url(#pbfeb59a5c8)" style="fill: none; stroke: #0f4d92; stroke-width: 1.7; stroke-linecap: square"/>
   </g>
   <g id="patch_12">
    <path d="M 293.826953 351.773987 
L 293.826953 207.476884 
" style="fill: none; stroke: #000000; stroke-width: 0.7; stroke-linejoin: miter; stroke-linecap: square"/>
   </g>
   <g id="patch_13">
    <path d="M 293.826953 351.773987 
L 492.467801 351.773987 
" style="fill: none; stroke: #000000; stroke-width: 0.7; stroke-linejoin: miter; stroke-linecap: square"/>
   </g>
   <g id="text_78">
    <text style="font-weight: 700; font-size: 8px; font-family: 'Arial', 'DejaVu Sans', 'Liberation Sans', sans-serif; text-anchor: start" x="268.003643" y="200.12625" transform="rotate(-0 268.003643 200.12625)">d</text>
   </g>
   <g id="legend_2">
    <g id="line2d_141">
     <path d="M 299.046953 214.889103 
L 304.846953 214.889103 
L 310.646953 214.889103 
" style="fill: none; stroke: #42949e; stroke-width: 1.5; stroke-linecap: square"/>
    </g>
    <g id="text_79">
     <text style="font-size: 5.8px; font-family: 'Arial', 'DejaVu Sans', 'Liberation Sans', sans-serif; text-anchor: start" x="315.286953" y="216.919103" transform="rotate(-0 315.286953 216.919103)">CalculiX vs Python full</text>
    </g>
    <g id="line2d_142">
     <path d="M 299.046953 223.235665 
L 304.846953 223.235665 
L 310.646953 223.235665 
" style="fill: none; stroke: #0f4d92; stroke-width: 1.7; stroke-linecap: square"/>
    </g>
    <g id="text_80">
     <text style="font-size: 5.8px; font-family: 'Arial', 'DejaVu Sans', 'Liberation Sans', sans-serif; text-anchor: start" x="315.286953" y="225.265665" transform="rotate(-0 315.286953 225.265665)">ROM vs Python full</text>
    </g>
   </g>
  </g>
  <g id="axes_5">
   <g id="matplotlib.axis_9">
    <g id="ytick_28">
     <g id="line2d_143">
      <defs>
       <path id="mb273a79cc3" d="M 0 0 
L 3.5 0 
" style="stroke: #000000; stroke-width: 0.6"/>
      </defs>
      <g>
       <use xlink:href="#mb273a79cc3" x="492.467801" y="345.608842" style="stroke: #000000; stroke-width: 0.6"/>
      </g>
     </g>
     <g id="text_81">
      <text style="font-size: 7px; font-family: 'Arial', 'DejaVu Sans', 'Liberation Sans', sans-serif; text-anchor: start" x="499.467801" y="348.114077" transform="rotate(-0 499.467801 348.114077)">0.0</text>
     </g>
    </g>
    <g id="ytick_29">
     <g id="line2d_144">
      <g>
       <use xlink:href="#mb273a79cc3" x="492.467801" y="319.077542" style="stroke: #000000; stroke-width: 0.6"/>
      </g>
     </g>
     <g id="text_82">
      <text style="font-size: 7px; font-family: 'Arial', 'DejaVu Sans', 'Liberation Sans', sans-serif; text-anchor: start" x="499.467801" y="321.582777" transform="rotate(-0 499.467801 321.582777)">0.2</text>
     </g>
    </g>
    <g id="ytick_30">
     <g id="line2d_145">
      <g>
       <use xlink:href="#mb273a79cc3" x="492.467801" y="292.546242" style="stroke: #000000; stroke-width: 0.6"/>
      </g>
     </g>
     <g id="text_83">
      <text style="font-size: 7px; font-family: 'Arial', 'DejaVu Sans', 'Liberation Sans', sans-serif; text-anchor: start" x="499.467801" y="295.051477" transform="rotate(-0 499.467801 295.051477)">0.4</text>
     </g>
    </g>
    <g id="ytick_31">
     <g id="line2d_146">
      <g>
       <use xlink:href="#mb273a79cc3" x="492.467801" y="266.014943" style="stroke: #000000; stroke-width: 0.6"/>
      </g>
     </g>
     <g id="text_84">
      <text style="font-size: 7px; font-family: 'Arial', 'DejaVu Sans', 'Liberation Sans', sans-serif; text-anchor: start" x="499.467801" y="268.520177" transform="rotate(-0 499.467801 268.520177)">0.6</text>
     </g>
    </g>
    <g id="ytick_32">
     <g id="line2d_147">
      <g>
       <use xlink:href="#mb273a79cc3" x="492.467801" y="239.483643" style="stroke: #000000; stroke-width: 0.6"/>
      </g>
     </g>
     <g id="text_85">
      <text style="font-size: 7px; font-family: 'Arial', 'DejaVu Sans', 'Liberation Sans', sans-serif; text-anchor: start" x="499.467801" y="241.988877" transform="rotate(-0 499.467801 241.988877)">0.8</text>
     </g>
    </g>
    <g id="ytick_33">
     <g id="line2d_148">
      <g>
       <use xlink:href="#mb273a79cc3" x="492.467801" y="212.952343" style="stroke: #000000; stroke-width: 0.6"/>
      </g>
     </g>
     <g id="text_86">
      <text style="font-size: 7px; font-family: 'Arial', 'DejaVu Sans', 'Liberation Sans', sans-serif; text-anchor: start" x="499.467801" y="215.457577" transform="rotate(-0 499.467801 215.457577)">1.0</text>
     </g>
    </g>
    <g id="text_87">
     <text style="font-size: 7px; font-family: 'Arial', 'DejaVu Sans', 'Liberation Sans', sans-serif; text-anchor: middle" x="518.20827" y="279.625436" transform="rotate(-90 518.20827 279.625436)">cumulative relative L2</text>
    </g>
   </g>
   <g id="line2d_149">
    <path d="M 302.856083 214.035843 
L 305.141938 267.437786 
L 307.427794 295.866833 
L 309.713649 311.016055 
L 311.999505 319.863569 
L 314.28536 325.209933 
L 316.571216 328.602619 
L 318.857072 330.892481 
L 321.142927 332.380569 
L 323.428783 333.257324 
L 325.714638 333.883705 
L 328.000494 334.549061 
L 330.286349 335.263071 
L 332.572205 335.88767 
L 334.85806 336.321819 
L 337.143916 336.550833 
L 339.429772 336.634849 
L 341.715627 336.697217 
L 344.001483 336.865908 
L 346.287338 337.191948 
L 348.573194 337.632796 
L 350.859049 338.104603 
L 353.144905 338.538051 
L 355.43076 338.896577 
L 357.716616 339.169709 
L 360.002472 339.36933 
L 362.288327 339.528413 
L 364.574183 339.68651 
L 366.860038 339.868362 
L 369.145894 340.075677 
L 371.431749 340.295438 
L 373.717605 340.512399 
L 376.00346 340.716714 
L 378.289316 340.906501 
L 380.575172 341.086669 
L 382.861027 341.264202 
L 385.146883 341.442349 
L 387.432738 341.618397 
L 389.718594 341.786149 
L 392.004449 341.939689 
L 394.290305 342.07536 
L 396.576161 342.192507 
L 398.862016 342.294107 
L 401.147872 342.386238 
L 403.433727 342.475182 
L 405.719583 342.564197 
L 408.005438 342.652769 
L 410.291294 342.738535 
L 412.577149 342.81948 
L 414.863005 342.894751 
L 417.148861 342.964459 
L 419.434716 343.029355 
L 421.720572 343.090561 
L 424.006427 343.149154 
L 426.292283 343.205748 
L 428.578138 343.260436 
L 430.863994 343.313087 
L 433.149849 343.363713 
L 435.435705 343.412669 
L 437.721561 343.460512 
L 440.007416 343.507628 
L 442.293272 343.553966 
L 444.579127 343.599152 
L 446.864983 343.642803 
L 449.150838 343.684677 
L 451.436694 343.724625 
L 453.72255 343.762602 
L 456.008405 343.798807 
L 458.294261 343.833675 
L 460.580116 343.867559 
L 462.865972 343.900401 
L 465.151827 343.931759 
L 467.437683 343.961145 
L 469.723538 343.988338 
L 472.009394 344.013432 
L 474.29525 344.036709 
L 476.581105 344.058467 
L 478.866961 344.078917 
L 481.152816 344.098144 
L 483.438672 344.116152 
" clip-path="url(#pbfeb59a5c8)" style="fill: none; stroke-dasharray: 1,1.65; stroke-dashoffset: 0; stroke: #42949e"/>
   </g>
   <g id="line2d_150">
    <path d="M 302.856083 344.744243 
L 305.141938 344.781684 
L 307.427794 344.848181 
L 309.713649 344.953242 
L 311.999505 345.094271 
L 314.28536 345.215028 
L 316.571216 345.160797 
L 318.857072 344.942924 
L 321.142927 344.734854 
L 323.428783 344.64659 
L 325.714638 344.704192 
L 328.000494 344.817401 
L 330.286349 344.795464 
L 332.572205 344.596996 
L 334.85806 344.395278 
L 337.143916 344.324768 
L 339.429772 344.406606 
L 341.715627 344.545702 
L 344.001483 344.584674 
L 346.287338 344.487018 
L 348.573194 344.37761 
L 350.859049 344.357193 
L 353.144905 344.433121 
L 355.43076 344.538423 
L 357.716616 344.584449 
L 360.002472 344.551364 
L 362.288327 344.504766 
L 364.574183 344.506128 
L 366.860038 344.562307 
L 369.145894 344.63765 
L 371.431749 344.69121 
L 373.717605 344.71226 
L 376.00346 344.721035 
L 378.289316 344.739427 
L 380.575172 344.772913 
L 382.861027 344.814423 
L 385.146883 344.855215 
L 387.432738 344.890741 
L 389.718594 344.91994 
L 392.004449 344.94335 
L 394.290305 344.963033 
L 396.576161 344.98216 
L 398.862016 345.002943 
L 401.147872 345.025268 
L 403.433727 345.047734 
L 405.719583 345.069066 
L 408.005438 345.087528 
L 410.291294 345.099982 
L 412.577149 345.104195 
L 414.863005 345.103003 
L 417.148861 345.103963 
L 419.434716 345.11301 
L 421.720572 345.128326 
L 424.006427 345.140648 
L 426.292283 345.141387 
L 428.578138 345.131628 
L 430.863994 345.121068 
L 433.149849 345.118641 
L 435.435705 345.125826 
L 437.721561 345.136831 
L 440.007416 345.143708 
L 442.293272 345.142481 
L 444.579127 345.13548 
L 446.864983 345.128472 
L 449.150838 345.126295 
L 451.436694 345.130343 
L 453.72255 345.138251 
L 456.008405 345.145344 
L 458.294261 345.147517 
L 460.580116 345.14418 
L 462.865972 345.13875 
L 465.151827 345.136013 
L 467.437683 345.138651 
L 469.723538 345.14553 
L 472.009394 345.152621 
L 474.29525 345.155946 
L 476.581105 345.154487 
L 478.866961 345.15064 
L 481.152816 345.148014 
L 483.438672 345.148829 
" clip-path="url(#pbfeb59a5c8)" style="fill: none; stroke-dasharray: 1,1.65; stroke-dashoffset: 0; stroke: #0f4d92"/>
   </g>
   <g id="patch_14">
    <path d="M 293.826953 351.773987 
L 293.826953 207.476884 
" style="fill: none; stroke: #000000; stroke-width: 0.7; stroke-linejoin: miter; stroke-linecap: square"/>
   </g>
   <g id="patch_15">
    <path d="M 293.826953 351.773987 
L 492.467801 351.773987 
" style="fill: none; stroke: #000000; stroke-width: 0.7; stroke-linejoin: miter; stroke-linecap: square"/>
   </g>
  </g>
 </g>
 <defs>
  <clipPath id="p7bdf1ae9e1">
   <rect x="46.205469" y="20.276884" width="198.640848" height="144.297103"/>
  </clipPath>
  <clipPath id="pf7cf86f715">
   <rect x="293.826953" y="20.276884" width="198.640848" height="144.297103"/>
  </clipPath>
  <clipPath id="p9fc0fc0723">
   <rect x="46.205469" y="207.476884" width="198.640848" height="144.297103"/>
  </clipPath>
  <clipPath id="pbfeb59a5c8">
   <rect x="293.826953" y="207.476884" width="198.640848" height="144.297103"/>
  </clipPath>
 </defs>
</svg>
